<svg width="35" height="28" viewBox="0 0 35 28" fill="none" xmlns="http://www.w3.org/2000/svg">
<path d="M32.8125 15.0769H2.1875C1.59505 15.0769 1.08236 14.8694 0.649414 14.4543C0.216471 14.0393 0 13.5288 0 12.9231C0 12.3173 0.216471 11.8069 0.649414 11.3918C1.08236 10.9768 1.59505 10.7692 2.1875 10.7692H32.8125C33.4049 10.7692 33.9176 10.9768 34.3506 11.3918C34.7835 11.8069 35 12.3173 35 12.9231C35 13.5288 34.7835 14.0393 34.3506 14.4543C33.9176 14.8694 33.4049 15.0769 32.8125 15.0769ZM30.625 8.61539H4.375C3.75977 8.61539 3.24137 8.40785 2.81982 7.99279C2.39827 7.57772 2.1875 7.06731 2.1875 6.46154C2.1875 4.6218 3.56608 3.08494 6.32324 1.85096C9.0804 0.616987 12.806 0 17.5 0C22.194 0 25.9196 0.616987 28.6768 1.85096C31.4339 3.08494 32.8125 4.6218 32.8125 6.46154C32.8125 7.06731 32.596 7.57772 32.1631 7.99279C31.7301 8.40785 31.2174 8.61539 30.625 8.61539ZM2.1875 17.2308H32.8125C33.4049 17.2308 33.9176 17.4383 34.3506 17.8534C34.7835 18.2684 35 18.7732 35 19.3678C35 19.9623 34.7835 20.4728 34.3506 20.899C33.9176 21.3253 33.4049 21.5385 32.8125 21.5385H2.1875C1.59505 21.5385 1.08236 21.3253 0.649414 20.899C0.216471 20.4728 0 19.9623 0 19.3678C0 18.7732 0.210775 18.2684 0.632324 17.8534C1.05387 17.4383 1.57227 17.2308 2.1875 17.2308ZM4.375 23.6923H30.625C31.2174 23.6923 31.7301 23.8998 32.1631 24.3149C32.596 24.73 32.8125 25.2404 32.8125 25.8462C32.8125 26.8782 31.9922 27.4952 30.3516 27.6971C28.7109 27.899 24.4271 28 17.5 28C10.5729 28 6.28906 27.899 4.64844 27.6971C3.00781 27.4952 2.1875 26.8782 2.1875 25.8462C2.1875 25.2628 2.39827 24.758 2.81982 24.3317C3.24137 23.9054 3.75977 23.6923 4.375 23.6923Z" fill="white"/>
</svg>
