<svg width="210" height="205" viewBox="0 0 210 205" fill="none" xmlns="http://www.w3.org/2000/svg">
<g filter="url(#filter0_d)">
<path fill="url(#skyGradient)" d="M123.67 194.321C97.7851 200.934 64.4856 189.808 39.8317 166.724C15.0959 143.761 -1.03347 108.636 7.10694 82.5688C15.1653 56.6224 47.6575 39.4916 78.0682 24.1252C108.6 8.84091 137.214 -4.92077 158.453 2.60928C179.692 10.1393 193.556 38.9611 197.136 65.2166C200.716 91.472 194.012 115.161 181.263 139.16C168.514 163.158 149.758 187.67 123.67 194.321Z"/>
</g>
<g filter="url(#filter1_d)">
<path d="M39.8311 99H38.8936V91.8906H39.8311V99ZM47.3504 98.4775C46.9988 98.891 46.4829 99.0977 45.8025 99.0977C45.2394 99.0977 44.8097 98.9349 44.5135 98.6094C44.2205 98.2806 44.0724 97.7956 44.0691 97.1543V93.7168H44.9725V97.1299C44.9725 97.9307 45.298 98.3311 45.949 98.3311C46.6391 98.3311 47.0981 98.0739 47.326 97.5596V93.7168H48.2293V99H47.3699L47.3504 98.4775ZM52.7824 97.5986C52.7824 97.3545 52.6896 97.1657 52.5041 97.0322C52.3218 96.8955 52.0012 96.7783 51.5422 96.6807C51.0865 96.583 50.7235 96.4658 50.4533 96.3291C50.1864 96.1924 49.9878 96.0296 49.8576 95.8408C49.7307 95.652 49.6672 95.4274 49.6672 95.167C49.6672 94.734 49.8495 94.3678 50.2141 94.0684C50.5819 93.7689 51.0507 93.6191 51.6203 93.6191C52.2193 93.6191 52.7043 93.7738 53.0754 94.083C53.4497 94.3923 53.6369 94.7878 53.6369 95.2695H52.7287C52.7287 95.0221 52.6229 94.8089 52.4113 94.6299C52.203 94.4508 51.9393 94.3613 51.6203 94.3613C51.2915 94.3613 51.0344 94.4329 50.8488 94.5762C50.6633 94.7194 50.5705 94.9066 50.5705 95.1377C50.5705 95.3558 50.6568 95.5202 50.8293 95.6309C51.0018 95.7415 51.3127 95.8473 51.7619 95.9482C52.2144 96.0492 52.5806 96.1696 52.8605 96.3096C53.1405 96.4495 53.3472 96.6188 53.4807 96.8174C53.6174 97.0127 53.6857 97.252 53.6857 97.5352C53.6857 98.0072 53.4969 98.3864 53.1193 98.6729C52.7417 98.9561 52.2518 99.0977 51.6496 99.0977C51.2264 99.0977 50.8521 99.0228 50.5266 98.873C50.201 98.7233 49.9455 98.515 49.76 98.248C49.5777 97.9779 49.4865 97.6865 49.4865 97.374H50.3898C50.4061 97.6768 50.5266 97.9176 50.7512 98.0967C50.979 98.2725 51.2785 98.3604 51.6496 98.3604C51.9914 98.3604 52.2648 98.292 52.4699 98.1553C52.6783 98.0153 52.7824 97.8298 52.7824 97.5986ZM57.1549 99.0977C56.4387 99.0977 55.8561 98.8633 55.4068 98.3945C54.9576 97.9225 54.733 97.2926 54.733 96.5049V96.3389C54.733 95.8148 54.8323 95.3477 55.0309 94.9375C55.2327 94.5241 55.5126 94.2018 55.8707 93.9707C56.232 93.7363 56.6227 93.6191 57.0426 93.6191C57.7294 93.6191 58.2633 93.8454 58.6441 94.2979C59.025 94.7503 59.2154 95.3981 59.2154 96.2412V96.6172H55.6363C55.6493 97.138 55.8007 97.5596 56.0904 97.8818C56.3834 98.2008 56.7545 98.3604 57.2037 98.3604C57.5227 98.3604 57.7929 98.2952 58.0143 98.165C58.2356 98.0348 58.4293 97.8623 58.5953 97.6475L59.1471 98.0771C58.7044 98.7575 58.0403 99.0977 57.1549 99.0977ZM57.0426 94.3613C56.678 94.3613 56.372 94.4948 56.1246 94.7617C55.8772 95.0254 55.7242 95.3965 55.6656 95.875H58.3121V95.8066C58.2861 95.3477 58.1624 94.9928 57.941 94.7422C57.7197 94.4883 57.4202 94.3613 57.0426 94.3613ZM64.1713 92.4375V93.7168H65.1576V94.415H64.1713V97.6914C64.1713 97.903 64.2152 98.0625 64.3031 98.1699C64.391 98.2741 64.5408 98.3262 64.7523 98.3262C64.8565 98.3262 64.9997 98.3066 65.182 98.2676V99C64.9444 99.0651 64.7133 99.0977 64.4887 99.0977C64.085 99.0977 63.7807 98.9756 63.5756 98.7314C63.3705 98.4873 63.268 98.1406 63.268 97.6914V94.415H62.3061V93.7168H63.268V92.4375H64.1713ZM67.2205 94.3564C67.6209 93.8649 68.1417 93.6191 68.783 93.6191C69.8995 93.6191 70.4627 94.249 70.4725 95.5088V99H69.5691V95.5039C69.5659 95.123 69.478 94.8415 69.3055 94.6592C69.1362 94.4769 68.8709 94.3857 68.5096 94.3857C68.2166 94.3857 67.9594 94.4639 67.7381 94.6201C67.5167 94.7764 67.3442 94.9814 67.2205 95.2354V99H66.3172V91.5H67.2205V94.3564ZM72.9064 99H72.0031V93.7168H72.9064V99ZM71.9299 92.3154C71.9299 92.1689 71.9738 92.0452 72.0617 91.9443C72.1529 91.8434 72.2863 91.793 72.4621 91.793C72.6379 91.793 72.7714 91.8434 72.8625 91.9443C72.9536 92.0452 72.9992 92.1689 72.9992 92.3154C72.9992 92.4619 72.9536 92.584 72.8625 92.6816C72.7714 92.7793 72.6379 92.8281 72.4621 92.8281C72.2863 92.8281 72.1529 92.7793 72.0617 92.6816C71.9738 92.584 71.9299 92.4619 71.9299 92.3154ZM77.5328 97.5986C77.5328 97.3545 77.44 97.1657 77.2545 97.0322C77.0722 96.8955 76.7516 96.7783 76.2926 96.6807C75.8369 96.583 75.4739 96.4658 75.2037 96.3291C74.9368 96.1924 74.7382 96.0296 74.608 95.8408C74.4811 95.652 74.4176 95.4274 74.4176 95.167C74.4176 94.734 74.5999 94.3678 74.9645 94.0684C75.3323 93.7689 75.801 93.6191 76.3707 93.6191C76.9697 93.6191 77.4547 93.7738 77.8258 94.083C78.2001 94.3923 78.3873 94.7878 78.3873 95.2695H77.4791C77.4791 95.0221 77.3733 94.8089 77.1617 94.6299C76.9534 94.4508 76.6897 94.3613 76.3707 94.3613C76.0419 94.3613 75.7848 94.4329 75.5992 94.5762C75.4137 94.7194 75.3209 94.9066 75.3209 95.1377C75.3209 95.3558 75.4072 95.5202 75.5797 95.6309C75.7522 95.7415 76.0631 95.8473 76.5123 95.9482C76.9648 96.0492 77.331 96.1696 77.6109 96.3096C77.8909 96.4495 78.0976 96.6188 78.2311 96.8174C78.3678 97.0127 78.4361 97.252 78.4361 97.5352C78.4361 98.0072 78.2473 98.3864 77.8697 98.6729C77.4921 98.9561 77.0022 99.0977 76.4 99.0977C75.9768 99.0977 75.6025 99.0228 75.277 98.873C74.9514 98.7233 74.6959 98.515 74.5104 98.248C74.3281 97.9779 74.2369 97.6865 74.2369 97.374H75.1402C75.1565 97.6768 75.277 97.9176 75.5016 98.0967C75.7294 98.2725 76.0289 98.3604 76.4 98.3604C76.7418 98.3604 77.0152 98.292 77.2203 98.1553C77.4286 98.0153 77.5328 97.8298 77.5328 97.5986ZM82.7377 99V94.415H81.9027V93.7168H82.7377V93.1748C82.7377 92.6084 82.8891 92.1706 83.1918 91.8613C83.4945 91.5521 83.9226 91.3975 84.476 91.3975C84.6843 91.3975 84.891 91.4251 85.0961 91.4805L85.0473 92.2129C84.8943 92.1836 84.7315 92.1689 84.559 92.1689C84.266 92.1689 84.0398 92.2552 83.8803 92.4277C83.7208 92.597 83.641 92.8411 83.641 93.1602V93.7168H84.7689V94.415H83.641V99H82.7377ZM85.6307 96.3096C85.6307 95.792 85.7316 95.3265 85.9334 94.9131C86.1385 94.4997 86.4217 94.1807 86.783 93.9561C87.1476 93.7314 87.5626 93.6191 88.0281 93.6191C88.7475 93.6191 89.3286 93.8682 89.7713 94.3662C90.2173 94.8643 90.4402 95.5267 90.4402 96.3535V96.417C90.4402 96.9313 90.341 97.3936 90.1424 97.8037C89.9471 98.2106 89.6655 98.528 89.2977 98.7559C88.9331 98.9837 88.5132 99.0977 88.0379 99.0977C87.3217 99.0977 86.7407 98.8486 86.2947 98.3506C85.852 97.8525 85.6307 97.1934 85.6307 96.373V96.3096ZM86.5389 96.417C86.5389 97.0029 86.674 97.4733 86.9441 97.8281C87.2176 98.1829 87.5822 98.3604 88.0379 98.3604C88.4969 98.3604 88.8615 98.1813 89.1316 97.8232C89.4018 97.4619 89.5369 96.9574 89.5369 96.3096C89.5369 95.7301 89.3986 95.2614 89.1219 94.9033C88.8484 94.542 88.4839 94.3613 88.0281 94.3613C87.5822 94.3613 87.2225 94.5387 86.949 94.8936C86.6756 95.2484 86.5389 95.7562 86.5389 96.417ZM94.2268 94.5273C94.09 94.5046 93.9419 94.4932 93.7824 94.4932C93.19 94.4932 92.788 94.7454 92.5764 95.25V99H91.673V93.7168H92.552L92.5666 94.3271C92.8628 93.8551 93.2827 93.6191 93.8264 93.6191C94.0021 93.6191 94.1356 93.6419 94.2268 93.6875V94.5273ZM98.5918 93.7168L98.6162 94.3027C99.0036 93.847 99.526 93.6191 100.184 93.6191C100.923 93.6191 101.425 93.9023 101.692 94.4688C101.868 94.2148 102.096 94.0098 102.376 93.8535C102.659 93.6973 102.993 93.6191 103.377 93.6191C104.536 93.6191 105.125 94.2327 105.145 95.46V99H104.241V95.5137C104.241 95.1361 104.155 94.8545 103.982 94.6689C103.81 94.4801 103.52 94.3857 103.113 94.3857C102.778 94.3857 102.5 94.4867 102.278 94.6885C102.057 94.887 101.928 95.1556 101.893 95.4941V99H100.984V95.5381C100.984 94.7699 100.608 94.3857 99.8564 94.3857C99.264 94.3857 98.8587 94.638 98.6406 95.1426V99H97.7373V93.7168H98.5918ZM109.873 99C109.821 98.8958 109.779 98.7103 109.746 98.4434C109.327 98.8796 108.825 99.0977 108.243 99.0977C107.722 99.0977 107.294 98.9512 106.958 98.6582C106.626 98.362 106.46 97.9876 106.46 97.5352C106.46 96.985 106.669 96.5586 107.085 96.2559C107.505 95.9499 108.094 95.7969 108.853 95.7969H109.732V95.3818C109.732 95.0661 109.637 94.8154 109.449 94.6299C109.26 94.4411 108.982 94.3467 108.614 94.3467C108.291 94.3467 108.021 94.4281 107.803 94.5908C107.585 94.7536 107.476 94.9505 107.476 95.1816H106.568C106.568 94.918 106.661 94.6641 106.846 94.4199C107.035 94.1725 107.289 93.9772 107.608 93.834C107.93 93.6908 108.283 93.6191 108.667 93.6191C109.276 93.6191 109.753 93.7721 110.098 94.0781C110.443 94.3809 110.622 94.7992 110.635 95.333V97.7646C110.635 98.2497 110.697 98.6354 110.821 98.9219V99H109.873ZM108.374 98.3115C108.658 98.3115 108.926 98.2383 109.18 98.0918C109.434 97.9453 109.618 97.7549 109.732 97.5205V96.4365H109.024C107.917 96.4365 107.364 96.7604 107.364 97.4082C107.364 97.6914 107.458 97.9128 107.647 98.0723C107.836 98.2318 108.078 98.3115 108.374 98.3115ZM113.626 96.5537L113.059 97.1445V99H112.156V91.5H113.059V96.0361L113.543 95.4551L115.188 93.7168H116.287L114.231 95.9238L116.526 99H115.467L113.626 96.5537ZM118.301 99H117.398V93.7168H118.301V99ZM117.324 92.3154C117.324 92.1689 117.368 92.0452 117.456 91.9443C117.547 91.8434 117.681 91.793 117.857 91.793C118.032 91.793 118.166 91.8434 118.257 91.9443C118.348 92.0452 118.394 92.1689 118.394 92.3154C118.394 92.4619 118.348 92.584 118.257 92.6816C118.166 92.7793 118.032 92.8281 117.857 92.8281C117.681 92.8281 117.547 92.7793 117.456 92.6816C117.368 92.584 117.324 92.4619 117.324 92.3154ZM120.706 93.7168L120.735 94.3809C121.139 93.873 121.666 93.6191 122.317 93.6191C123.434 93.6191 123.997 94.249 124.006 95.5088V99H123.103V95.5039C123.1 95.123 123.012 94.8415 122.839 94.6592C122.67 94.4769 122.405 94.3857 122.044 94.3857C121.751 94.3857 121.493 94.4639 121.272 94.6201C121.051 94.7764 120.878 94.9814 120.754 95.2354V99H119.851V93.7168H120.706ZM125.254 96.3145C125.254 95.4909 125.444 94.8366 125.825 94.3516C126.206 93.8633 126.711 93.6191 127.339 93.6191C127.983 93.6191 128.486 93.847 128.848 94.3027L128.892 93.7168H129.717V98.873C129.717 99.5566 129.513 100.095 129.106 100.489C128.703 100.883 128.159 101.08 127.476 101.08C127.095 101.08 126.722 100.999 126.357 100.836C125.993 100.673 125.715 100.45 125.522 100.167L125.991 99.625C126.379 100.104 126.852 100.343 127.412 100.343C127.852 100.343 128.193 100.219 128.438 99.9717C128.685 99.7243 128.809 99.376 128.809 98.9268V98.4727C128.447 98.8893 127.954 99.0977 127.329 99.0977C126.711 99.0977 126.209 98.8486 125.825 98.3506C125.444 97.8525 125.254 97.1738 125.254 96.3145ZM126.162 96.417C126.162 97.0127 126.284 97.4814 126.528 97.8232C126.772 98.1618 127.114 98.3311 127.554 98.3311C128.123 98.3311 128.542 98.0723 128.809 97.5547V95.1426C128.532 94.638 128.117 94.3857 127.563 94.3857C127.124 94.3857 126.781 94.5566 126.533 94.8984C126.286 95.2402 126.162 95.7464 126.162 96.417ZM133.906 99V91.8906H136.23C137.002 91.8906 137.581 92.0501 137.969 92.3691C138.359 92.6882 138.554 93.1602 138.554 93.7852C138.554 94.1172 138.46 94.4118 138.271 94.6689C138.082 94.9229 137.825 95.1198 137.5 95.2598C137.884 95.3672 138.187 95.5723 138.408 95.875C138.633 96.1745 138.745 96.5326 138.745 96.9492C138.745 97.5872 138.538 98.0885 138.125 98.4531C137.711 98.8177 137.127 99 136.372 99H133.906ZM134.844 95.6748V98.2334H136.391C136.828 98.2334 137.171 98.1211 137.422 97.8965C137.676 97.6686 137.803 97.3561 137.803 96.959C137.803 96.1029 137.337 95.6748 136.406 95.6748H134.844ZM134.844 94.9229H136.26C136.67 94.9229 136.997 94.8203 137.241 94.6152C137.488 94.4102 137.612 94.1318 137.612 93.7803C137.612 93.3896 137.498 93.1064 137.27 92.9307C137.042 92.7516 136.696 92.6621 136.23 92.6621H134.844V94.9229ZM141.242 99H140.305V91.8906H141.242V99ZM144.272 91.8906L146.596 97.6914L148.921 91.8906H150.136V99H149.199V96.2314L149.287 93.2432L146.953 99H146.235L143.906 93.2578L143.999 96.2314V99H143.061V91.8906H144.272ZM154.14 97.0908C154.14 96.749 154.234 96.4349 154.423 96.1484C154.615 95.862 154.98 95.5283 155.517 95.1475C155.201 94.7633 154.99 94.4541 154.882 94.2197C154.775 93.9854 154.721 93.7526 154.721 93.5215C154.721 92.9811 154.881 92.5579 155.2 92.252C155.519 91.946 155.952 91.793 156.498 91.793C156.987 91.793 157.39 91.9362 157.709 92.2227C158.028 92.5059 158.188 92.8639 158.188 93.2969C158.188 93.5833 158.115 93.8486 157.968 94.0928C157.825 94.3337 157.573 94.5876 157.211 94.8545L156.689 95.2402L158.271 97.1299C158.492 96.7067 158.603 96.2363 158.603 95.7188H159.418C159.418 96.5488 159.218 97.2373 158.818 97.7842L159.833 99H158.749L158.276 98.4385C158.035 98.6533 157.752 98.8177 157.426 98.9316C157.104 99.0423 156.775 99.0977 156.44 99.0977C155.746 99.0977 155.19 98.9137 154.77 98.5459C154.35 98.1781 154.14 97.693 154.14 97.0908ZM156.44 98.3604C156.918 98.3604 157.356 98.1781 157.753 97.8135L156.02 95.7383L155.859 95.8555C155.315 96.2559 155.043 96.6676 155.043 97.0908C155.043 97.4749 155.167 97.7826 155.414 98.0137C155.665 98.2448 156.007 98.3604 156.44 98.3604ZM155.624 93.4922C155.624 93.8047 155.816 94.1953 156.201 94.6641L156.777 94.2588C156.998 94.1025 157.149 93.9544 157.231 93.8145C157.312 93.6712 157.353 93.4987 157.353 93.2969C157.353 93.0788 157.272 92.8981 157.109 92.7549C156.946 92.6084 156.741 92.5352 156.494 92.5352C156.227 92.5352 156.015 92.6263 155.859 92.8086C155.703 92.9876 155.624 93.2155 155.624 93.4922ZM40.4268 109.774L41.7354 105.717H42.6582L40.7637 111H40.0752L38.1611 105.717H39.084L40.4268 109.774ZM44.6088 111H43.7055V105.717H44.6088V111ZM43.6322 104.315C43.6322 104.169 43.6762 104.045 43.7641 103.944C43.8552 103.843 43.9887 103.793 44.1645 103.793C44.3402 103.793 44.4737 103.843 44.5648 103.944C44.656 104.045 44.7016 104.169 44.7016 104.315C44.7016 104.462 44.656 104.584 44.5648 104.682C44.4737 104.779 44.3402 104.828 44.1645 104.828C43.9887 104.828 43.8552 104.779 43.7641 104.682C43.6762 104.584 43.6322 104.462 43.6322 104.315ZM49.2352 109.599C49.2352 109.354 49.1424 109.166 48.9568 109.032C48.7745 108.896 48.4539 108.778 47.9949 108.681C47.5392 108.583 47.1762 108.466 46.9061 108.329C46.6391 108.192 46.4406 108.03 46.3104 107.841C46.1834 107.652 46.1199 107.427 46.1199 107.167C46.1199 106.734 46.3022 106.368 46.6668 106.068C47.0346 105.769 47.5034 105.619 48.073 105.619C48.672 105.619 49.157 105.774 49.5281 106.083C49.9025 106.392 50.0896 106.788 50.0896 107.27H49.1814C49.1814 107.022 49.0757 106.809 48.8641 106.63C48.6557 106.451 48.3921 106.361 48.073 106.361C47.7443 106.361 47.4871 106.433 47.3016 106.576C47.116 106.719 47.0232 106.907 47.0232 107.138C47.0232 107.356 47.1095 107.52 47.282 107.631C47.4546 107.742 47.7654 107.847 48.2146 107.948C48.6671 108.049 49.0333 108.17 49.3133 108.31C49.5932 108.45 49.7999 108.619 49.9334 108.817C50.0701 109.013 50.1385 109.252 50.1385 109.535C50.1385 110.007 49.9497 110.386 49.5721 110.673C49.1945 110.956 48.7046 111.098 48.1023 111.098C47.6792 111.098 47.3048 111.023 46.9793 110.873C46.6538 110.723 46.3982 110.515 46.2127 110.248C46.0304 109.978 45.9393 109.687 45.9393 109.374H46.8426C46.8589 109.677 46.9793 109.918 47.2039 110.097C47.4318 110.272 47.7312 110.36 48.1023 110.36C48.4441 110.36 48.7176 110.292 48.9227 110.155C49.131 110.015 49.2352 109.83 49.2352 109.599ZM54.677 110.478C54.3254 110.891 53.8094 111.098 53.1291 111.098C52.566 111.098 52.1363 110.935 51.84 110.609C51.5471 110.281 51.399 109.796 51.3957 109.154V105.717H52.299V109.13C52.299 109.931 52.6245 110.331 53.2756 110.331C53.9657 110.331 54.4247 110.074 54.6525 109.56V105.717H55.5559V111H54.6965L54.677 110.478ZM60.2945 111C60.2424 110.896 60.2001 110.71 60.1676 110.443C59.7477 110.88 59.2464 111.098 58.6637 111.098C58.1428 111.098 57.7148 110.951 57.3795 110.658C57.0475 110.362 56.8814 109.988 56.8814 109.535C56.8814 108.985 57.0898 108.559 57.5064 108.256C57.9264 107.95 58.5156 107.797 59.274 107.797H60.1529V107.382C60.1529 107.066 60.0585 106.815 59.8697 106.63C59.6809 106.441 59.4026 106.347 59.0348 106.347C58.7125 106.347 58.4423 106.428 58.2242 106.591C58.0061 106.754 57.8971 106.951 57.8971 107.182H56.9889C56.9889 106.918 57.0816 106.664 57.2672 106.42C57.456 106.173 57.7099 105.977 58.0289 105.834C58.3512 105.691 58.7044 105.619 59.0885 105.619C59.6972 105.619 60.1741 105.772 60.5191 106.078C60.8642 106.381 61.0432 106.799 61.0562 107.333V109.765C61.0562 110.25 61.1181 110.635 61.2418 110.922V111H60.2945ZM58.7955 110.312C59.0787 110.312 59.3473 110.238 59.6012 110.092C59.8551 109.945 60.039 109.755 60.1529 109.521V108.437H59.4449C58.3382 108.437 57.7848 108.76 57.7848 109.408C57.7848 109.691 57.8792 109.913 58.068 110.072C58.2568 110.232 58.4993 110.312 58.7955 110.312ZM63.5537 111H62.6504V103.5H63.5537V111ZM66.0854 111H65.182V105.717H66.0854V111ZM65.1088 104.315C65.1088 104.169 65.1527 104.045 65.2406 103.944C65.3318 103.843 65.4652 103.793 65.641 103.793C65.8168 103.793 65.9503 103.843 66.0414 103.944C66.1326 104.045 66.1781 104.169 66.1781 104.315C66.1781 104.462 66.1326 104.584 66.0414 104.682C65.9503 104.779 65.8168 104.828 65.641 104.828C65.4652 104.828 65.3318 104.779 65.2406 104.682C65.1527 104.584 65.1088 104.462 65.1088 104.315ZM68.4852 110.263H71.576V111H67.3816V110.336L70.2967 106.464H67.4256V105.717H71.4295V106.356L68.4852 110.263ZM75.9582 111C75.9061 110.896 75.8638 110.71 75.8312 110.443C75.4113 110.88 74.91 111.098 74.3273 111.098C73.8065 111.098 73.3784 110.951 73.0432 110.658C72.7111 110.362 72.5451 109.988 72.5451 109.535C72.5451 108.985 72.7534 108.559 73.1701 108.256C73.59 107.95 74.1792 107.797 74.9377 107.797H75.8166V107.382C75.8166 107.066 75.7222 106.815 75.5334 106.63C75.3446 106.441 75.0663 106.347 74.6984 106.347C74.3762 106.347 74.106 106.428 73.8879 106.591C73.6698 106.754 73.5607 106.951 73.5607 107.182H72.6525C72.6525 106.918 72.7453 106.664 72.9309 106.42C73.1197 106.173 73.3736 105.977 73.6926 105.834C74.0148 105.691 74.368 105.619 74.7521 105.619C75.3609 105.619 75.8378 105.772 76.1828 106.078C76.5279 106.381 76.7069 106.799 76.7199 107.333V109.765C76.7199 110.25 76.7818 110.635 76.9055 110.922V111H75.9582ZM74.4592 110.312C74.7424 110.312 75.0109 110.238 75.2648 110.092C75.5187 109.945 75.7027 109.755 75.8166 109.521V108.437H75.1086C74.0018 108.437 73.4484 108.76 73.4484 109.408C73.4484 109.691 73.5428 109.913 73.7316 110.072C73.9204 110.232 74.163 110.312 74.4592 110.312ZM79.4615 104.438V105.717H80.4479V106.415H79.4615V109.691C79.4615 109.903 79.5055 110.062 79.5934 110.17C79.6813 110.274 79.831 110.326 80.0426 110.326C80.1467 110.326 80.29 110.307 80.4723 110.268V111C80.2346 111.065 80.0035 111.098 79.7789 111.098C79.3753 111.098 79.0709 110.976 78.8658 110.731C78.6607 110.487 78.5582 110.141 78.5582 109.691V106.415H77.5963V105.717H78.5582V104.438H79.4615ZM82.5889 111H81.6855V105.717H82.5889V111ZM81.6123 104.315C81.6123 104.169 81.6562 104.045 81.7441 103.944C81.8353 103.843 81.9688 103.793 82.1445 103.793C82.3203 103.793 82.4538 103.843 82.5449 103.944C82.6361 104.045 82.6816 104.169 82.6816 104.315C82.6816 104.462 82.6361 104.584 82.5449 104.682C82.4538 104.779 82.3203 104.828 82.1445 104.828C81.9688 104.828 81.8353 104.779 81.7441 104.682C81.6562 104.584 81.6123 104.462 81.6123 104.315ZM83.8998 108.31C83.8998 107.792 84.0007 107.326 84.2025 106.913C84.4076 106.5 84.6908 106.181 85.0521 105.956C85.4167 105.731 85.8318 105.619 86.2973 105.619C87.0167 105.619 87.5977 105.868 88.0404 106.366C88.4864 106.864 88.7094 107.527 88.7094 108.354V108.417C88.7094 108.931 88.6101 109.394 88.4115 109.804C88.2162 110.211 87.9346 110.528 87.5668 110.756C87.2022 110.984 86.7823 111.098 86.307 111.098C85.5909 111.098 85.0098 110.849 84.5639 110.351C84.1212 109.853 83.8998 109.193 83.8998 108.373V108.31ZM84.808 108.417C84.808 109.003 84.9431 109.473 85.2133 109.828C85.4867 110.183 85.8513 110.36 86.307 110.36C86.766 110.36 87.1306 110.181 87.4008 109.823C87.671 109.462 87.8061 108.957 87.8061 108.31C87.8061 107.73 87.6677 107.261 87.391 106.903C87.1176 106.542 86.753 106.361 86.2973 106.361C85.8513 106.361 85.4916 106.539 85.2182 106.894C84.9447 107.248 84.808 107.756 84.808 108.417ZM90.7967 105.717L90.826 106.381C91.2296 105.873 91.757 105.619 92.408 105.619C93.5245 105.619 94.0877 106.249 94.0975 107.509V111H93.1941V107.504C93.1909 107.123 93.103 106.841 92.9305 106.659C92.7612 106.477 92.4959 106.386 92.1346 106.386C91.8416 106.386 91.5844 106.464 91.3631 106.62C91.1417 106.776 90.9692 106.981 90.8455 107.235V111H89.9422V105.717H90.7967ZM95.5793 110.526C95.5793 110.37 95.6249 110.24 95.716 110.136C95.8104 110.032 95.9504 109.979 96.1359 109.979C96.3215 109.979 96.4615 110.032 96.5559 110.136C96.6535 110.24 96.7023 110.37 96.7023 110.526C96.7023 110.676 96.6535 110.801 96.5559 110.902C96.4615 111.003 96.3215 111.054 96.1359 111.054C95.9504 111.054 95.8104 111.003 95.716 110.902C95.6249 110.801 95.5793 110.676 95.5793 110.526ZM41.2861 152.524H38.5371V151.387H41.2861V152.524ZM45.2631 152.524H42.5141V151.387H45.2631V152.524Z" fill="white"/>
<path d="M44.5332 78.7949H42.1992V84H39.2695V69.7812H44.5527C46.2324 69.7812 47.528 70.1556 48.4395 70.9043C49.3509 71.653 49.8066 72.7109 49.8066 74.0781C49.8066 75.0482 49.5951 75.8587 49.1719 76.5098C48.7552 77.1543 48.1204 77.6686 47.2676 78.0527L50.3438 83.8633V84H47.1992L44.5332 78.7949ZM42.1992 76.4219H44.5625C45.2982 76.4219 45.8678 76.2363 46.2715 75.8652C46.6751 75.4876 46.877 74.9701 46.877 74.3125C46.877 73.6419 46.6849 73.1146 46.3008 72.7305C45.9232 72.3464 45.3405 72.1543 44.5527 72.1543H42.1992V76.4219ZM56.9207 84.1953C55.3712 84.1953 54.1082 83.7201 53.1316 82.7695C52.1616 81.819 51.6766 80.5527 51.6766 78.9707V78.6973C51.6766 77.6361 51.8816 76.6888 52.2918 75.8555C52.702 75.0156 53.2814 74.3711 54.0301 73.9219C54.7853 73.4661 55.6447 73.2383 56.6082 73.2383C58.0535 73.2383 59.1896 73.694 60.0164 74.6055C60.8497 75.5169 61.2664 76.8092 61.2664 78.4824V79.6348H54.5379C54.629 80.3249 54.9025 80.8783 55.3582 81.2949C55.8204 81.7116 56.4031 81.9199 57.1062 81.9199C58.1935 81.9199 59.0431 81.526 59.6551 80.7383L61.0418 82.291C60.6186 82.89 60.0457 83.3587 59.323 83.6973C58.6004 84.0293 57.7996 84.1953 56.9207 84.1953ZM56.5984 75.5234C56.0385 75.5234 55.5828 75.7122 55.2312 76.0898C54.8862 76.4674 54.6648 77.0078 54.5672 77.7109H58.493V77.4863C58.4799 76.8613 58.3107 76.3796 57.9852 76.041C57.6596 75.696 57.1974 75.5234 56.5984 75.5234ZM66.8961 80.5527L68.859 73.4336H71.8082L68.2437 84H65.5484L61.984 73.4336H64.9332L66.8961 80.5527ZM76.2367 84H73.4047V73.4336H76.2367V84ZM73.2387 70.6992C73.2387 70.276 73.3786 69.9277 73.6586 69.6543C73.9451 69.3809 74.3324 69.2441 74.8207 69.2441C75.3025 69.2441 75.6866 69.3809 75.973 69.6543C76.2595 69.9277 76.4027 70.276 76.4027 70.6992C76.4027 71.1289 76.2562 71.4805 75.9633 71.7539C75.6768 72.0273 75.296 72.1641 74.8207 72.1641C74.3454 72.1641 73.9613 72.0273 73.6684 71.7539C73.3819 71.4805 73.2387 71.1289 73.2387 70.6992ZM82.1496 70.8359V73.4336H83.9562V75.5039H82.1496V80.7773C82.1496 81.168 82.2245 81.4479 82.3742 81.6172C82.524 81.7865 82.8104 81.8711 83.2336 81.8711C83.5461 81.8711 83.8228 81.8483 84.0637 81.8027V83.9414C83.5103 84.1107 82.9406 84.1953 82.3547 84.1953C80.3755 84.1953 79.3664 83.196 79.3273 81.1973V75.5039H77.7844V73.4336H79.3273V70.8359H82.1496ZM99.1219 81.0703H93.9852L93.0086 84H89.8934L95.1863 69.7812H97.9012L103.223 84H100.108L99.1219 81.0703ZM94.7762 78.6973H98.3309L96.5438 73.375L94.7762 78.6973ZM110.504 76.0801C110.119 76.028 109.781 76.002 109.488 76.002C108.42 76.002 107.72 76.3633 107.388 77.0859V84H104.566V73.4336H107.232L107.31 74.6934C107.877 73.7233 108.661 73.2383 109.664 73.2383C109.976 73.2383 110.269 73.2806 110.543 73.3652L110.504 76.0801ZM116.27 81.9199C116.791 81.9199 117.214 81.7767 117.539 81.4902C117.865 81.2038 118.034 80.8229 118.047 80.3477H120.694C120.687 81.0638 120.492 81.7214 120.108 82.3203C119.724 82.9128 119.196 83.375 118.526 83.707C117.862 84.0326 117.126 84.1953 116.319 84.1953C114.808 84.1953 113.617 83.7168 112.745 82.7598C111.872 81.7962 111.436 80.4681 111.436 78.7754V78.5898C111.436 76.9622 111.869 75.6634 112.735 74.6934C113.601 73.7233 114.789 73.2383 116.299 73.2383C117.621 73.2383 118.679 73.6159 119.473 74.3711C120.274 75.1198 120.681 76.1191 120.694 77.3691H118.047C118.034 76.8223 117.865 76.3796 117.539 76.041C117.214 75.696 116.784 75.5234 116.25 75.5234C115.593 75.5234 115.095 75.7643 114.756 76.2461C114.424 76.7214 114.258 77.4961 114.258 78.5703V78.8633C114.258 79.9505 114.424 80.7318 114.756 81.207C115.088 81.6823 115.593 81.9199 116.27 81.9199ZM125.259 74.5859C126.008 73.6875 126.948 73.2383 128.081 73.2383C130.373 73.2383 131.535 74.5697 131.568 77.2324V84H128.745V77.3105C128.745 76.7051 128.615 76.2591 128.355 75.9727C128.094 75.6797 127.661 75.5332 127.056 75.5332C126.229 75.5332 125.63 75.8522 125.259 76.4902V84H122.437V69H125.259V74.5859Z" fill="white"/>
</g>
<defs>


<linearGradient id="skyGradient" x1="100%" y1="100%" gradientTransform="rotate(45)>
     
     
          <stop offset="0%" stop-color="#e73c7e" >
            <animate attributeName="stop-color" values="#ee7752;#e73c7e;#;#23d5ab;#23d5ab;23a6d5;#e73c7e;#ee7752" dur="14s" repeatCount="indefinite" />
          </stop>
     
     
          <stop offset="100%" stop-color="#e73c7e">
            <animate attributeName="stop-color" values="#ee7752;#e73c7e;#;#23d5ab;#23d5ab;23a6d5;#e73c7e;#ee7752" dur="14s" repeatCount="indefinite" />
            <animate attributeName="offset" values=".95;.80;.60;.40;.20;0;.20;.40;.60;.80;.95" dur="14s" repeatCount="indefinite" />
          </stop>
     
     
     
        </linearGradient>




<filter id="filter0_d" x="0.978512" y="0.486328" width="201.116" height="203.723" filterUnits="userSpaceOnUse" color-interpolation-filters="sRGB">
<feFlood flood-opacity="0" result="BackgroundImageFix"/>
<feColorMatrix in="SourceAlpha" type="matrix" values="0 0 0 0 0 0 0 0 0 0 0 0 0 0 0 0 0 0 127 0" result="hardAlpha"/>
<feOffset dy="4"/>
<feGaussianBlur stdDeviation="2"/>
<feComposite in2="hardAlpha" operator="out"/>
<feColorMatrix type="matrix" values="0 0 0 0 0 0 0 0 0 0 0 0 0 0 0 0 0 0 0.25 0"/>
<feBlend mode="normal" in2="BackgroundImageFix" result="effect1_dropShadow"/>
<feBlend mode="normal" in="SourceGraphic" in2="effect1_dropShadow" result="shape"/>
</filter>
<filter id="filter1_d" x="34.1611" y="69" width="129.672" height="91.5244" filterUnits="userSpaceOnUse" color-interpolation-filters="sRGB">
<feFlood flood-opacity="0" result="BackgroundImageFix"/>
<feColorMatrix in="SourceAlpha" type="matrix" values="0 0 0 0 0 0 0 0 0 0 0 0 0 0 0 0 0 0 127 0" result="hardAlpha"/>
<feOffset dy="4"/>
<feGaussianBlur stdDeviation="2"/>
<feComposite in2="hardAlpha" operator="out"/>
<feColorMatrix type="matrix" values="0 0 0 0 0 0 0 0 0 0 0 0 0 0 0 0 0 0 0.25 0"/>
<feBlend mode="normal" in2="BackgroundImageFix" result="effect1_dropShadow"/>
<feBlend mode="normal" in="SourceGraphic" in2="effect1_dropShadow" result="shape"/>
</filter>
</defs>
</svg>