<svg width="217" height="217" viewBox="0 0 217 217" fill="none" xmlns="http://www.w3.org/2000/svg">
<g filter="url(#filter0_d)">
<path fill="url(#skyGradient)" d="M63.3904 19.1807C82.3684 4.10092 110.11 -3.75628 134.132 2.88753C158.113 9.66494 178.333 31.077 189.461 55.3992C200.63 79.5878 202.757 106.995 192.56 126.379C182.497 145.804 160.11 157.205 136.472 173.632C112.875 189.925 88.0698 211.111 66.3157 208.526C44.5616 205.941 26.1266 179.667 19.6176 154.131C13.2835 128.503 18.968 103.787 26.8042 80.1695C34.6404 56.5523 44.5461 34.3015 63.3904 19.1807Z"/>
</g>
<g filter="url(#filter1_d)">
<path d="M39.8311 114H38.8936V106.891H39.8311V114ZM47.3504 113.478C46.9988 113.891 46.4829 114.098 45.8025 114.098C45.2394 114.098 44.8097 113.935 44.5135 113.609C44.2205 113.281 44.0724 112.796 44.0691 112.154V108.717H44.9725V112.13C44.9725 112.931 45.298 113.331 45.949 113.331C46.6391 113.331 47.0981 113.074 47.326 112.56V108.717H48.2293V114H47.3699L47.3504 113.478ZM52.7824 112.599C52.7824 112.354 52.6896 112.166 52.5041 112.032C52.3218 111.896 52.0012 111.778 51.5422 111.681C51.0865 111.583 50.7235 111.466 50.4533 111.329C50.1864 111.192 49.9878 111.03 49.8576 110.841C49.7307 110.652 49.6672 110.427 49.6672 110.167C49.6672 109.734 49.8495 109.368 50.2141 109.068C50.5819 108.769 51.0507 108.619 51.6203 108.619C52.2193 108.619 52.7043 108.774 53.0754 109.083C53.4497 109.392 53.6369 109.788 53.6369 110.27H52.7287C52.7287 110.022 52.6229 109.809 52.4113 109.63C52.203 109.451 51.9393 109.361 51.6203 109.361C51.2915 109.361 51.0344 109.433 50.8488 109.576C50.6633 109.719 50.5705 109.907 50.5705 110.138C50.5705 110.356 50.6568 110.52 50.8293 110.631C51.0018 110.742 51.3127 110.847 51.7619 110.948C52.2144 111.049 52.5806 111.17 52.8605 111.31C53.1405 111.45 53.3472 111.619 53.4807 111.817C53.6174 112.013 53.6857 112.252 53.6857 112.535C53.6857 113.007 53.4969 113.386 53.1193 113.673C52.7417 113.956 52.2518 114.098 51.6496 114.098C51.2264 114.098 50.8521 114.023 50.5266 113.873C50.201 113.723 49.9455 113.515 49.76 113.248C49.5777 112.978 49.4865 112.687 49.4865 112.374H50.3898C50.4061 112.677 50.5266 112.918 50.7512 113.097C50.979 113.272 51.2785 113.36 51.6496 113.36C51.9914 113.36 52.2648 113.292 52.4699 113.155C52.6783 113.015 52.7824 112.83 52.7824 112.599ZM57.1549 114.098C56.4387 114.098 55.8561 113.863 55.4068 113.395C54.9576 112.923 54.733 112.293 54.733 111.505V111.339C54.733 110.815 54.8323 110.348 55.0309 109.938C55.2327 109.524 55.5126 109.202 55.8707 108.971C56.232 108.736 56.6227 108.619 57.0426 108.619C57.7294 108.619 58.2633 108.845 58.6441 109.298C59.025 109.75 59.2154 110.398 59.2154 111.241V111.617H55.6363C55.6493 112.138 55.8007 112.56 56.0904 112.882C56.3834 113.201 56.7545 113.36 57.2037 113.36C57.5227 113.36 57.7929 113.295 58.0143 113.165C58.2356 113.035 58.4293 112.862 58.5953 112.647L59.1471 113.077C58.7044 113.757 58.0403 114.098 57.1549 114.098ZM57.0426 109.361C56.678 109.361 56.372 109.495 56.1246 109.762C55.8772 110.025 55.7242 110.396 55.6656 110.875H58.3121V110.807C58.2861 110.348 58.1624 109.993 57.941 109.742C57.7197 109.488 57.4202 109.361 57.0426 109.361ZM63.9271 114H63.0238V108.717H63.9271V114ZM62.9506 107.315C62.9506 107.169 62.9945 107.045 63.0824 106.944C63.1736 106.843 63.307 106.793 63.4828 106.793C63.6586 106.793 63.7921 106.843 63.8832 106.944C63.9743 107.045 64.0199 107.169 64.0199 107.315C64.0199 107.462 63.9743 107.584 63.8832 107.682C63.7921 107.779 63.6586 107.828 63.4828 107.828C63.307 107.828 63.1736 107.779 63.0824 107.682C62.9945 107.584 62.9506 107.462 62.9506 107.315ZM66.7029 107.438V108.717H67.6893V109.415H66.7029V112.691C66.7029 112.903 66.7469 113.062 66.8348 113.17C66.9227 113.274 67.0724 113.326 67.284 113.326C67.3882 113.326 67.5314 113.307 67.7137 113.268V114C67.476 114.065 67.2449 114.098 67.0203 114.098C66.6167 114.098 66.3123 113.976 66.1072 113.731C65.9021 113.487 65.7996 113.141 65.7996 112.691V109.415H64.8377V108.717H65.7996V107.438H66.7029ZM71.8736 114V109.415H71.0387V108.717H71.8736V108.175C71.8736 107.608 72.025 107.171 72.3277 106.861C72.6305 106.552 73.0585 106.397 73.6119 106.397C73.8202 106.397 74.027 106.425 74.232 106.48L74.1832 107.213C74.0302 107.184 73.8674 107.169 73.6949 107.169C73.402 107.169 73.1757 107.255 73.0162 107.428C72.8567 107.597 72.777 107.841 72.777 108.16V108.717H73.9049V109.415H72.777V114H71.8736ZM74.7666 111.31C74.7666 110.792 74.8675 110.326 75.0693 109.913C75.2744 109.5 75.5576 109.181 75.9189 108.956C76.2835 108.731 76.6986 108.619 77.1641 108.619C77.8835 108.619 78.4645 108.868 78.9072 109.366C79.3532 109.864 79.5762 110.527 79.5762 111.354V111.417C79.5762 111.931 79.4769 112.394 79.2783 112.804C79.083 113.211 78.8014 113.528 78.4336 113.756C78.069 113.984 77.6491 114.098 77.1738 114.098C76.4577 114.098 75.8766 113.849 75.4307 113.351C74.988 112.853 74.7666 112.193 74.7666 111.373V111.31ZM75.6748 111.417C75.6748 112.003 75.8099 112.473 76.0801 112.828C76.3535 113.183 76.7181 113.36 77.1738 113.36C77.6328 113.36 77.9974 113.181 78.2676 112.823C78.5378 112.462 78.6729 111.957 78.6729 111.31C78.6729 110.73 78.5345 110.261 78.2578 109.903C77.9844 109.542 77.6198 109.361 77.1641 109.361C76.7181 109.361 76.3584 109.539 76.085 109.894C75.8115 110.248 75.6748 110.756 75.6748 111.417ZM83.3627 109.527C83.226 109.505 83.0779 109.493 82.9184 109.493C82.3259 109.493 81.9239 109.745 81.7123 110.25V114H80.809V108.717H81.6879L81.7025 109.327C81.9988 108.855 82.4187 108.619 82.9623 108.619C83.1381 108.619 83.2715 108.642 83.3627 108.688V109.527ZM88.1037 107.438V108.717H89.09V109.415H88.1037V112.691C88.1037 112.903 88.1477 113.062 88.2355 113.17C88.3234 113.274 88.4732 113.326 88.6848 113.326C88.7889 113.326 88.9322 113.307 89.1145 113.268V114C88.8768 114.065 88.6457 114.098 88.4211 114.098C88.0174 114.098 87.7131 113.976 87.508 113.731C87.3029 113.487 87.2004 113.141 87.2004 112.691V109.415H86.2385V108.717H87.2004V107.438H88.1037ZM92.442 114.098C91.7258 114.098 91.1432 113.863 90.6939 113.395C90.2447 112.923 90.0201 112.293 90.0201 111.505V111.339C90.0201 110.815 90.1194 110.348 90.318 109.938C90.5198 109.524 90.7997 109.202 91.1578 108.971C91.5191 108.736 91.9098 108.619 92.3297 108.619C93.0165 108.619 93.5504 108.845 93.9313 109.298C94.3121 109.75 94.5025 110.398 94.5025 111.241V111.617H90.9234C90.9365 112.138 91.0878 112.56 91.3775 112.882C91.6705 113.201 92.0416 113.36 92.4908 113.36C92.8098 113.36 93.08 113.295 93.3014 113.165C93.5227 113.035 93.7164 112.862 93.8824 112.647L94.4342 113.077C93.9915 113.757 93.3274 114.098 92.442 114.098ZM92.3297 109.361C91.9651 109.361 91.6591 109.495 91.4117 109.762C91.1643 110.025 91.0113 110.396 90.9527 110.875H93.5992V110.807C93.5732 110.348 93.4495 109.993 93.2281 109.742C93.0068 109.488 92.7073 109.361 92.3297 109.361ZM98.7285 112.599C98.7285 112.354 98.6357 112.166 98.4502 112.032C98.2679 111.896 97.9473 111.778 97.4883 111.681C97.0326 111.583 96.6696 111.466 96.3994 111.329C96.1325 111.192 95.9339 111.03 95.8037 110.841C95.6768 110.652 95.6133 110.427 95.6133 110.167C95.6133 109.734 95.7956 109.368 96.1602 109.068C96.528 108.769 96.9967 108.619 97.5664 108.619C98.1654 108.619 98.6504 108.774 99.0215 109.083C99.3958 109.392 99.583 109.788 99.583 110.27H98.6748C98.6748 110.022 98.569 109.809 98.3574 109.63C98.1491 109.451 97.8854 109.361 97.5664 109.361C97.2376 109.361 96.9805 109.433 96.7949 109.576C96.6094 109.719 96.5166 109.907 96.5166 110.138C96.5166 110.356 96.6029 110.52 96.7754 110.631C96.9479 110.742 97.2588 110.847 97.708 110.948C98.1605 111.049 98.5267 111.17 98.8066 111.31C99.0866 111.45 99.2933 111.619 99.4268 111.817C99.5635 112.013 99.6318 112.252 99.6318 112.535C99.6318 113.007 99.443 113.386 99.0654 113.673C98.6878 113.956 98.1979 114.098 97.5957 114.098C97.1725 114.098 96.7982 114.023 96.4727 113.873C96.1471 113.723 95.8916 113.515 95.7061 113.248C95.5238 112.978 95.4326 112.687 95.4326 112.374H96.3359C96.3522 112.677 96.4727 112.918 96.6973 113.097C96.9251 113.272 97.2246 113.36 97.5957 113.36C97.9375 113.36 98.2109 113.292 98.416 113.155C98.6243 113.015 98.7285 112.83 98.7285 112.599ZM102.134 107.438V108.717H103.121V109.415H102.134V112.691C102.134 112.903 102.178 113.062 102.266 113.17C102.354 113.274 102.504 113.326 102.715 113.326C102.819 113.326 102.963 113.307 103.145 113.268V114C102.907 114.065 102.676 114.098 102.452 114.098C102.048 114.098 101.744 113.976 101.538 113.731C101.333 113.487 101.231 113.141 101.231 112.691V109.415H100.269V108.717H101.231V107.438H102.134ZM105.262 114H104.358V108.717H105.262V114ZM104.285 107.315C104.285 107.169 104.329 107.045 104.417 106.944C104.508 106.843 104.641 106.793 104.817 106.793C104.993 106.793 105.126 106.843 105.218 106.944C105.309 107.045 105.354 107.169 105.354 107.315C105.354 107.462 105.309 107.584 105.218 107.682C105.126 107.779 104.993 107.828 104.817 107.828C104.641 107.828 104.508 107.779 104.417 107.682C104.329 107.584 104.285 107.462 104.285 107.315ZM107.666 108.717L107.696 109.381C108.099 108.873 108.627 108.619 109.278 108.619C110.394 108.619 110.957 109.249 110.967 110.509V114H110.064V110.504C110.06 110.123 109.973 109.841 109.8 109.659C109.631 109.477 109.365 109.386 109.004 109.386C108.711 109.386 108.454 109.464 108.233 109.62C108.011 109.776 107.839 109.981 107.715 110.235V114H106.812V108.717H107.666ZM112.214 111.314C112.214 110.491 112.405 109.837 112.786 109.352C113.167 108.863 113.671 108.619 114.299 108.619C114.944 108.619 115.447 108.847 115.808 109.303L115.852 108.717H116.677V113.873C116.677 114.557 116.474 115.095 116.067 115.489C115.663 115.883 115.12 116.08 114.436 116.08C114.055 116.08 113.683 115.999 113.318 115.836C112.953 115.673 112.675 115.45 112.483 115.167L112.952 114.625C113.339 115.104 113.813 115.343 114.373 115.343C114.812 115.343 115.154 115.219 115.398 114.972C115.645 114.724 115.769 114.376 115.769 113.927V113.473C115.408 113.889 114.915 114.098 114.29 114.098C113.671 114.098 113.17 113.849 112.786 113.351C112.405 112.853 112.214 112.174 112.214 111.314ZM113.123 111.417C113.123 112.013 113.245 112.481 113.489 112.823C113.733 113.162 114.075 113.331 114.514 113.331C115.084 113.331 115.502 113.072 115.769 112.555V110.143C115.492 109.638 115.077 109.386 114.524 109.386C114.085 109.386 113.741 109.557 113.494 109.898C113.246 110.24 113.123 110.746 113.123 111.417ZM121.706 114H120.803V108.717H121.706V114ZM120.73 107.315C120.73 107.169 120.774 107.045 120.862 106.944C120.953 106.843 121.086 106.793 121.262 106.793C121.438 106.793 121.571 106.843 121.662 106.944C121.754 107.045 121.799 107.169 121.799 107.315C121.799 107.462 121.754 107.584 121.662 107.682C121.571 107.779 121.438 107.828 121.262 107.828C121.086 107.828 120.953 107.779 120.862 107.682C120.774 107.584 120.73 107.462 120.73 107.315ZM123.037 111.314C123.037 110.504 123.229 109.853 123.613 109.361C123.997 108.867 124.5 108.619 125.122 108.619C125.74 108.619 126.23 108.831 126.592 109.254V106.5H127.495V114H126.665L126.621 113.434C126.26 113.876 125.757 114.098 125.112 114.098C124.5 114.098 124 113.847 123.613 113.346C123.229 112.844 123.037 112.19 123.037 111.383V111.314ZM123.94 111.417C123.94 112.016 124.064 112.485 124.311 112.823C124.559 113.162 124.901 113.331 125.337 113.331C125.91 113.331 126.328 113.074 126.592 112.56V110.133C126.321 109.635 125.906 109.386 125.346 109.386C124.904 109.386 124.559 109.557 124.311 109.898C124.064 110.24 123.94 110.746 123.94 111.417ZM131.194 114.098C130.477 114.098 129.895 113.863 129.446 113.395C128.996 112.923 128.772 112.293 128.772 111.505V111.339C128.772 110.815 128.871 110.348 129.07 109.938C129.271 109.524 129.551 109.202 129.909 108.971C130.271 108.736 130.661 108.619 131.081 108.619C131.768 108.619 132.302 108.845 132.683 109.298C133.064 109.75 133.254 110.398 133.254 111.241V111.617H129.675C129.688 112.138 129.839 112.56 130.129 112.882C130.422 113.201 130.793 113.36 131.242 113.36C131.561 113.36 131.832 113.295 132.053 113.165C132.274 113.035 132.468 112.862 132.634 112.647L133.186 113.077C132.743 113.757 132.079 114.098 131.194 114.098ZM131.081 109.361C130.717 109.361 130.411 109.495 130.163 109.762C129.916 110.025 129.763 110.396 129.704 110.875H132.351V110.807C132.325 110.348 132.201 109.993 131.98 109.742C131.758 109.488 131.459 109.361 131.081 109.361ZM137.666 114C137.614 113.896 137.571 113.71 137.539 113.443C137.119 113.88 136.617 114.098 136.035 114.098C135.514 114.098 135.086 113.951 134.751 113.658C134.419 113.362 134.253 112.988 134.253 112.535C134.253 111.985 134.461 111.559 134.878 111.256C135.297 110.95 135.887 110.797 136.645 110.797H137.524V110.382C137.524 110.066 137.43 109.815 137.241 109.63C137.052 109.441 136.774 109.347 136.406 109.347C136.084 109.347 135.813 109.428 135.595 109.591C135.377 109.754 135.268 109.951 135.268 110.182H134.36C134.36 109.918 134.453 109.664 134.638 109.42C134.827 109.173 135.081 108.977 135.4 108.834C135.722 108.691 136.075 108.619 136.46 108.619C137.068 108.619 137.545 108.772 137.89 109.078C138.235 109.381 138.414 109.799 138.427 110.333V112.765C138.427 113.25 138.489 113.635 138.613 113.922V114H137.666ZM136.167 113.312C136.45 113.312 136.718 113.238 136.972 113.092C137.226 112.945 137.41 112.755 137.524 112.521V111.437H136.816C135.709 111.437 135.156 111.76 135.156 112.408C135.156 112.691 135.25 112.913 135.439 113.072C135.628 113.232 135.87 113.312 136.167 113.312ZM143.02 112.599C143.02 112.354 142.927 112.166 142.741 112.032C142.559 111.896 142.238 111.778 141.779 111.681C141.324 111.583 140.961 111.466 140.69 111.329C140.424 111.192 140.225 111.03 140.095 110.841C139.968 110.652 139.904 110.427 139.904 110.167C139.904 109.734 140.087 109.368 140.451 109.068C140.819 108.769 141.288 108.619 141.857 108.619C142.456 108.619 142.941 108.774 143.312 109.083C143.687 109.392 143.874 109.788 143.874 110.27H142.966C142.966 110.022 142.86 109.809 142.648 109.63C142.44 109.451 142.176 109.361 141.857 109.361C141.529 109.361 141.271 109.433 141.086 109.576C140.9 109.719 140.808 109.907 140.808 110.138C140.808 110.356 140.894 110.52 141.066 110.631C141.239 110.742 141.55 110.847 141.999 110.948C142.451 111.049 142.818 111.17 143.098 111.31C143.378 111.45 143.584 111.619 143.718 111.817C143.854 112.013 143.923 112.252 143.923 112.535C143.923 113.007 143.734 113.386 143.356 113.673C142.979 113.956 142.489 114.098 141.887 114.098C141.464 114.098 141.089 114.023 140.764 113.873C140.438 113.723 140.183 113.515 139.997 113.248C139.815 112.978 139.724 112.687 139.724 112.374H140.627C140.643 112.677 140.764 112.918 140.988 113.097C141.216 113.272 141.516 113.36 141.887 113.36C142.229 113.36 142.502 113.292 142.707 113.155C142.915 113.015 143.02 112.83 143.02 112.599ZM148.762 114H147.858V108.717H148.762V114ZM147.785 107.315C147.785 107.169 147.829 107.045 147.917 106.944C148.008 106.843 148.141 106.793 148.317 106.793C148.493 106.793 148.626 106.843 148.718 106.944C148.809 107.045 148.854 107.169 148.854 107.315C148.854 107.462 148.809 107.584 148.718 107.682C148.626 107.779 148.493 107.828 148.317 107.828C148.141 107.828 148.008 107.779 147.917 107.682C147.829 107.584 147.785 107.462 147.785 107.315ZM151.166 108.717L151.196 109.381C151.599 108.873 152.127 108.619 152.778 108.619C153.894 108.619 154.457 109.249 154.467 110.509V114H153.564V110.504C153.56 110.123 153.473 109.841 153.3 109.659C153.131 109.477 152.865 109.386 152.504 109.386C152.211 109.386 151.954 109.464 151.733 109.62C151.511 109.776 151.339 109.981 151.215 110.235V114H150.312V108.717H151.166ZM159.73 110.006H160.409C160.836 109.999 161.171 109.887 161.415 109.669C161.659 109.451 161.781 109.156 161.781 108.785C161.781 107.952 161.366 107.535 160.536 107.535C160.146 107.535 159.833 107.647 159.599 107.872C159.368 108.093 159.252 108.388 159.252 108.756H158.349C158.349 108.193 158.554 107.726 158.964 107.354C159.377 106.98 159.901 106.793 160.536 106.793C161.207 106.793 161.732 106.97 162.113 107.325C162.494 107.68 162.685 108.173 162.685 108.805C162.685 109.114 162.584 109.413 162.382 109.703C162.183 109.993 161.911 110.209 161.566 110.353C161.957 110.476 162.258 110.681 162.47 110.968C162.685 111.254 162.792 111.604 162.792 112.018C162.792 112.656 162.584 113.162 162.167 113.536C161.75 113.91 161.208 114.098 160.541 114.098C159.874 114.098 159.33 113.917 158.91 113.556C158.493 113.194 158.285 112.717 158.285 112.125H159.193C159.193 112.499 159.315 112.799 159.56 113.023C159.804 113.248 160.131 113.36 160.541 113.36C160.977 113.36 161.311 113.246 161.542 113.019C161.773 112.791 161.889 112.464 161.889 112.037C161.889 111.624 161.762 111.306 161.508 111.085C161.254 110.864 160.888 110.75 160.409 110.743H159.73V110.006ZM164.367 114V106.891H166.373C166.992 106.891 167.539 107.027 168.014 107.301C168.489 107.574 168.856 107.963 169.113 108.468C169.373 108.972 169.505 109.552 169.508 110.206V110.66C169.508 111.331 169.378 111.918 169.118 112.423C168.86 112.927 168.491 113.315 168.009 113.585C167.531 113.855 166.972 113.993 166.334 114H164.367ZM165.304 107.662V113.233H166.29C167.013 113.233 167.575 113.009 167.975 112.56C168.379 112.11 168.58 111.471 168.58 110.641V110.226C168.58 109.418 168.39 108.792 168.009 108.346C167.632 107.896 167.094 107.669 166.398 107.662H165.304ZM38.4932 124.091C38.4932 123.749 38.5876 123.435 38.7764 123.148C38.9684 122.862 39.333 122.528 39.8701 122.147C39.5544 121.763 39.3428 121.454 39.2354 121.22C39.1279 120.985 39.0742 120.753 39.0742 120.521C39.0742 119.981 39.2337 119.558 39.5527 119.252C39.8717 118.946 40.3047 118.793 40.8516 118.793C41.3398 118.793 41.7435 118.936 42.0625 119.223C42.3815 119.506 42.541 119.864 42.541 120.297C42.541 120.583 42.4678 120.849 42.3213 121.093C42.1781 121.334 41.9258 121.588 41.5645 121.854L41.042 122.24L42.624 124.13C42.8454 123.707 42.9561 123.236 42.9561 122.719H43.7715C43.7715 123.549 43.5713 124.237 43.1709 124.784L44.1865 126H43.1025L42.6289 125.438C42.388 125.653 42.1048 125.818 41.7793 125.932C41.457 126.042 41.1283 126.098 40.793 126.098C40.0996 126.098 39.543 125.914 39.123 125.546C38.7031 125.178 38.4932 124.693 38.4932 124.091ZM40.793 125.36C41.2715 125.36 41.7093 125.178 42.1064 124.813L40.373 122.738L40.2119 122.855C39.6683 123.256 39.3965 123.668 39.3965 124.091C39.3965 124.475 39.5202 124.783 39.7676 125.014C40.0182 125.245 40.36 125.36 40.793 125.36ZM39.9775 120.492C39.9775 120.805 40.1696 121.195 40.5537 121.664L41.1299 121.259C41.3512 121.103 41.5026 120.954 41.584 120.814C41.6654 120.671 41.7061 120.499 41.7061 120.297C41.7061 120.079 41.6247 119.898 41.4619 119.755C41.2992 119.608 41.0941 119.535 40.8467 119.535C40.5798 119.535 40.3682 119.626 40.2119 119.809C40.0557 119.988 39.9775 120.215 39.9775 120.492ZM49.7039 125.36C50.0262 125.36 50.3077 125.263 50.5486 125.067C50.7895 124.872 50.923 124.628 50.949 124.335H51.8035C51.7872 124.638 51.6831 124.926 51.491 125.199C51.299 125.473 51.0418 125.691 50.7195 125.854C50.4005 126.016 50.062 126.098 49.7039 126.098C48.9845 126.098 48.4116 125.858 47.9852 125.38C47.562 124.898 47.3504 124.241 47.3504 123.407V123.256C47.3504 122.742 47.4448 122.284 47.6336 121.884C47.8224 121.483 48.0926 121.173 48.4441 120.951C48.799 120.73 49.2173 120.619 49.699 120.619C50.2915 120.619 50.783 120.797 51.1736 121.151C51.5675 121.506 51.7775 121.967 51.8035 122.533H50.949C50.923 122.191 50.7928 121.911 50.5584 121.693C50.3273 121.472 50.0408 121.361 49.699 121.361C49.24 121.361 48.8836 121.527 48.6297 121.859C48.379 122.188 48.2537 122.665 48.2537 123.29V123.461C48.2537 124.07 48.379 124.538 48.6297 124.867C48.8803 125.196 49.2384 125.36 49.7039 125.36ZM55.4729 121.527C55.3361 121.505 55.188 121.493 55.0285 121.493C54.4361 121.493 54.034 121.745 53.8225 122.25V126H52.9191V120.717H53.798L53.8127 121.327C54.1089 120.855 54.5288 120.619 55.0725 120.619C55.2482 120.619 55.3817 120.642 55.4729 120.688V121.527ZM58.5025 126.098C57.7864 126.098 57.2037 125.863 56.7545 125.395C56.3053 124.923 56.0807 124.293 56.0807 123.505V123.339C56.0807 122.815 56.1799 122.348 56.3785 121.938C56.5803 121.524 56.8603 121.202 57.2184 120.971C57.5797 120.736 57.9703 120.619 58.3902 120.619C59.0771 120.619 59.6109 120.845 59.9918 121.298C60.3727 121.75 60.5631 122.398 60.5631 123.241V123.617H56.984C56.997 124.138 57.1484 124.56 57.4381 124.882C57.7311 125.201 58.1021 125.36 58.5514 125.36C58.8704 125.36 59.1406 125.295 59.3619 125.165C59.5833 125.035 59.777 124.862 59.943 124.647L60.4947 125.077C60.052 125.757 59.388 126.098 58.5025 126.098ZM58.3902 121.361C58.0257 121.361 57.7197 121.495 57.4723 121.762C57.2249 122.025 57.0719 122.396 57.0133 122.875H59.6598V122.807C59.6337 122.348 59.51 121.993 59.2887 121.742C59.0673 121.488 58.7678 121.361 58.3902 121.361ZM64.9746 126C64.9225 125.896 64.8802 125.71 64.8477 125.443C64.4277 125.88 63.9264 126.098 63.3438 126.098C62.8229 126.098 62.3949 125.951 62.0596 125.658C61.7275 125.362 61.5615 124.988 61.5615 124.535C61.5615 123.985 61.7699 123.559 62.1865 123.256C62.6064 122.95 63.1956 122.797 63.9541 122.797H64.833V122.382C64.833 122.066 64.7386 121.815 64.5498 121.63C64.361 121.441 64.0827 121.347 63.7148 121.347C63.3926 121.347 63.1224 121.428 62.9043 121.591C62.6862 121.754 62.5771 121.951 62.5771 122.182H61.6689C61.6689 121.918 61.7617 121.664 61.9473 121.42C62.1361 121.173 62.39 120.977 62.709 120.834C63.0312 120.691 63.3844 120.619 63.7686 120.619C64.3773 120.619 64.8542 120.772 65.1992 121.078C65.5443 121.381 65.7233 121.799 65.7363 122.333V124.765C65.7363 125.25 65.7982 125.635 65.9219 125.922V126H64.9746ZM63.4756 125.312C63.7588 125.312 64.0273 125.238 64.2812 125.092C64.5352 124.945 64.7191 124.755 64.833 124.521V123.437H64.125C63.0182 123.437 62.4648 123.76 62.4648 124.408C62.4648 124.691 62.5592 124.913 62.748 125.072C62.9368 125.232 63.1794 125.312 63.4756 125.312ZM68.4779 119.438V120.717H69.4643V121.415H68.4779V124.691C68.4779 124.903 68.5219 125.062 68.6098 125.17C68.6977 125.274 68.8474 125.326 69.059 125.326C69.1632 125.326 69.3064 125.307 69.4887 125.268V126C69.251 126.065 69.0199 126.098 68.7953 126.098C68.3917 126.098 68.0873 125.976 67.8822 125.731C67.6771 125.487 67.5746 125.141 67.5746 124.691V121.415H66.6127V120.717H67.5746V119.438H68.4779ZM71.6053 126H70.702V120.717H71.6053V126ZM70.6287 119.315C70.6287 119.169 70.6727 119.045 70.7605 118.944C70.8517 118.843 70.9852 118.793 71.1609 118.793C71.3367 118.793 71.4702 118.843 71.5613 118.944C71.6525 119.045 71.698 119.169 71.698 119.315C71.698 119.462 71.6525 119.584 71.5613 119.682C71.4702 119.779 71.3367 119.828 71.1609 119.828C70.9852 119.828 70.8517 119.779 70.7605 119.682C70.6727 119.584 70.6287 119.462 70.6287 119.315ZM74.01 120.717L74.0393 121.381C74.4429 120.873 74.9702 120.619 75.6213 120.619C76.7378 120.619 77.301 121.249 77.3107 122.509V126H76.4074V122.504C76.4042 122.123 76.3163 121.841 76.1437 121.659C75.9745 121.477 75.7092 121.386 75.3479 121.386C75.0549 121.386 74.7977 121.464 74.5764 121.62C74.355 121.776 74.1825 121.981 74.0588 122.235V126H73.1555V120.717H74.01ZM78.5582 123.314C78.5582 122.491 78.7486 121.837 79.1295 121.352C79.5104 120.863 80.0149 120.619 80.6432 120.619C81.2877 120.619 81.7906 120.847 82.152 121.303L82.1959 120.717H83.0211V125.873C83.0211 126.557 82.8176 127.095 82.4107 127.489C82.0071 127.883 81.4635 128.08 80.7799 128.08C80.399 128.08 80.0263 127.999 79.6617 127.836C79.2971 127.673 79.0188 127.45 78.8268 127.167L79.2955 126.625C79.6829 127.104 80.1565 127.343 80.7164 127.343C81.1559 127.343 81.4977 127.219 81.7418 126.972C81.9892 126.724 82.1129 126.376 82.1129 125.927V125.473C81.7516 125.889 81.2584 126.098 80.6334 126.098C80.0149 126.098 79.5136 125.849 79.1295 125.351C78.7486 124.853 78.5582 124.174 78.5582 123.314ZM79.4664 123.417C79.4664 124.013 79.5885 124.481 79.8326 124.823C80.0768 125.162 80.4186 125.331 80.858 125.331C81.4277 125.331 81.846 125.072 82.1129 124.555V122.143C81.8362 121.638 81.4212 121.386 80.8678 121.386C80.4283 121.386 80.0849 121.557 79.8375 121.898C79.5901 122.24 79.4664 122.746 79.4664 123.417ZM89.1879 125.36C89.5102 125.36 89.7917 125.263 90.0326 125.067C90.2735 124.872 90.407 124.628 90.433 124.335H91.2875C91.2712 124.638 91.1671 124.926 90.975 125.199C90.7829 125.473 90.5258 125.691 90.2035 125.854C89.8845 126.016 89.546 126.098 89.1879 126.098C88.4685 126.098 87.8956 125.858 87.4691 125.38C87.046 124.898 86.8344 124.241 86.8344 123.407V123.256C86.8344 122.742 86.9288 122.284 87.1176 121.884C87.3064 121.483 87.5766 121.173 87.9281 120.951C88.2829 120.73 88.7012 120.619 89.183 120.619C89.7755 120.619 90.267 120.797 90.6576 121.151C91.0515 121.506 91.2615 121.967 91.2875 122.533H90.433C90.407 122.191 90.2768 121.911 90.0424 121.693C89.8113 121.472 89.5248 121.361 89.183 121.361C88.724 121.361 88.3676 121.527 88.1137 121.859C87.863 122.188 87.7377 122.665 87.7377 123.29V123.461C87.7377 124.07 87.863 124.538 88.1137 124.867C88.3643 125.196 88.7224 125.36 89.1879 125.36ZM92.1639 123.31C92.1639 122.792 92.2648 122.326 92.4666 121.913C92.6717 121.5 92.9549 121.181 93.3162 120.956C93.6808 120.731 94.0958 120.619 94.5613 120.619C95.2807 120.619 95.8618 120.868 96.3045 121.366C96.7505 121.864 96.9734 122.527 96.9734 123.354V123.417C96.9734 123.931 96.8742 124.394 96.6756 124.804C96.4803 125.211 96.1987 125.528 95.8309 125.756C95.4663 125.984 95.0464 126.098 94.5711 126.098C93.8549 126.098 93.2739 125.849 92.8279 125.351C92.3852 124.853 92.1639 124.193 92.1639 123.373V123.31ZM93.0721 123.417C93.0721 124.003 93.2072 124.473 93.4773 124.828C93.7508 125.183 94.1154 125.36 94.5711 125.36C95.0301 125.36 95.3947 125.181 95.6648 124.823C95.935 124.462 96.0701 123.957 96.0701 123.31C96.0701 122.73 95.9318 122.261 95.6551 121.903C95.3816 121.542 95.0171 121.361 94.5613 121.361C94.1154 121.361 93.7557 121.539 93.4822 121.894C93.2088 122.248 93.0721 122.756 93.0721 123.417ZM99.0607 120.717L99.09 121.381C99.4937 120.873 100.021 120.619 100.672 120.619C101.789 120.619 102.352 121.249 102.362 122.509V126H101.458V122.504C101.455 122.123 101.367 121.841 101.195 121.659C101.025 121.477 100.76 121.386 100.399 121.386C100.106 121.386 99.8485 121.464 99.6271 121.62C99.4058 121.776 99.2333 121.981 99.1096 122.235V126H98.2062V120.717H99.0607ZM105.943 125.36C106.265 125.36 106.547 125.263 106.788 125.067C107.029 124.872 107.162 124.628 107.188 124.335H108.043C108.026 124.638 107.922 124.926 107.73 125.199C107.538 125.473 107.281 125.691 106.959 125.854C106.64 126.016 106.301 126.098 105.943 126.098C105.224 126.098 104.651 125.858 104.224 125.38C103.801 124.898 103.589 124.241 103.589 123.407V123.256C103.589 122.742 103.684 122.284 103.873 121.884C104.061 121.483 104.332 121.173 104.683 120.951C105.038 120.73 105.456 120.619 105.938 120.619C106.531 120.619 107.022 120.797 107.413 121.151C107.807 121.506 108.017 121.967 108.043 122.533H107.188C107.162 122.191 107.032 121.911 106.797 121.693C106.566 121.472 106.28 121.361 105.938 121.361C105.479 121.361 105.123 121.527 104.869 121.859C104.618 122.188 104.493 122.665 104.493 123.29V123.461C104.493 124.07 104.618 124.538 104.869 124.867C105.119 125.196 105.477 125.36 105.943 125.36ZM111.351 126.098C110.634 126.098 110.052 125.863 109.603 125.395C109.153 124.923 108.929 124.293 108.929 123.505V123.339C108.929 122.815 109.028 122.348 109.227 121.938C109.428 121.524 109.708 121.202 110.066 120.971C110.428 120.736 110.818 120.619 111.238 120.619C111.925 120.619 112.459 120.845 112.84 121.298C113.221 121.75 113.411 122.398 113.411 123.241V123.617H109.832C109.845 124.138 109.996 124.56 110.286 124.882C110.579 125.201 110.95 125.36 111.399 125.36C111.718 125.36 111.989 125.295 112.21 125.165C112.431 125.035 112.625 124.862 112.791 124.647L113.343 125.077C112.9 125.757 112.236 126.098 111.351 126.098ZM111.238 121.361C110.874 121.361 110.568 121.495 110.32 121.762C110.073 122.025 109.92 122.396 109.861 122.875H112.508V122.807C112.482 122.348 112.358 121.993 112.137 121.742C111.915 121.488 111.616 121.361 111.238 121.361ZM119.024 123.417C119.024 124.221 118.84 124.869 118.472 125.36C118.104 125.852 117.606 126.098 116.978 126.098C116.337 126.098 115.832 125.894 115.464 125.487V128.031H114.561V120.717H115.386L115.43 121.303C115.798 120.847 116.309 120.619 116.963 120.619C117.598 120.619 118.099 120.858 118.467 121.337C118.838 121.815 119.024 122.481 119.024 123.334V123.417ZM118.121 123.314C118.121 122.719 117.994 122.248 117.74 121.903C117.486 121.558 117.137 121.386 116.695 121.386C116.148 121.386 115.738 121.628 115.464 122.113V124.638C115.734 125.119 116.148 125.36 116.704 125.36C117.137 125.36 117.481 125.189 117.735 124.848C117.992 124.503 118.121 123.992 118.121 123.314ZM121.502 119.438V120.717H122.488V121.415H121.502V124.691C121.502 124.903 121.546 125.062 121.634 125.17C121.721 125.274 121.871 125.326 122.083 125.326C122.187 125.326 122.33 125.307 122.512 125.268V126C122.275 126.065 122.044 126.098 121.819 126.098C121.415 126.098 121.111 125.976 120.906 125.731C120.701 125.487 120.598 125.141 120.598 124.691V121.415H119.637V120.717H120.598V119.438H121.502ZM126.909 125.478C126.558 125.891 126.042 126.098 125.362 126.098C124.798 126.098 124.369 125.935 124.072 125.609C123.779 125.281 123.631 124.796 123.628 124.154V120.717H124.531V124.13C124.531 124.931 124.857 125.331 125.508 125.331C126.198 125.331 126.657 125.074 126.885 124.56V120.717H127.788V126H126.929L126.909 125.478ZM132.527 126C132.475 125.896 132.433 125.71 132.4 125.443C131.98 125.88 131.479 126.098 130.896 126.098C130.375 126.098 129.947 125.951 129.612 125.658C129.28 125.362 129.114 124.988 129.114 124.535C129.114 123.985 129.322 123.559 129.739 123.256C130.159 122.95 130.748 122.797 131.506 122.797H132.385V122.382C132.385 122.066 132.291 121.815 132.102 121.63C131.913 121.441 131.635 121.347 131.267 121.347C130.945 121.347 130.675 121.428 130.457 121.591C130.239 121.754 130.129 121.951 130.129 122.182H129.221C129.221 121.918 129.314 121.664 129.5 121.42C129.688 121.173 129.942 120.977 130.261 120.834C130.584 120.691 130.937 120.619 131.321 120.619C131.93 120.619 132.407 120.772 132.752 121.078C133.097 121.381 133.276 121.799 133.289 122.333V124.765C133.289 125.25 133.351 125.635 133.474 125.922V126H132.527ZM131.028 125.312C131.311 125.312 131.58 125.238 131.834 125.092C132.088 124.945 132.271 124.755 132.385 124.521V123.437H131.677C130.571 123.437 130.017 123.76 130.017 124.408C130.017 124.691 130.112 124.913 130.3 125.072C130.489 125.232 130.732 125.312 131.028 125.312ZM135.786 126H134.883V118.5H135.786V126ZM141.269 118.891L143.594 124.691L145.918 118.891H147.134V126H146.196V123.231L146.284 120.243L143.95 126H143.232L140.903 120.258L140.996 123.231V126H140.058V118.891H141.269ZM148.508 123.31C148.508 122.792 148.609 122.326 148.811 121.913C149.016 121.5 149.299 121.181 149.66 120.956C150.025 120.731 150.44 120.619 150.905 120.619C151.625 120.619 152.206 120.868 152.649 121.366C153.095 121.864 153.318 122.527 153.318 123.354V123.417C153.318 123.931 153.218 124.394 153.02 124.804C152.824 125.211 152.543 125.528 152.175 125.756C151.81 125.984 151.39 126.098 150.915 126.098C150.199 126.098 149.618 125.849 149.172 125.351C148.729 124.853 148.508 124.193 148.508 123.373V123.31ZM149.416 123.417C149.416 124.003 149.551 124.473 149.821 124.828C150.095 125.183 150.46 125.36 150.915 125.36C151.374 125.36 151.739 125.181 152.009 124.823C152.279 124.462 152.414 123.957 152.414 123.31C152.414 122.73 152.276 122.261 151.999 121.903C151.726 121.542 151.361 121.361 150.905 121.361C150.46 121.361 150.1 121.539 149.826 121.894C149.553 122.248 149.416 122.756 149.416 123.417ZM154.331 123.314C154.331 122.504 154.523 121.853 154.907 121.361C155.291 120.867 155.794 120.619 156.416 120.619C157.034 120.619 157.524 120.831 157.885 121.254V118.5H158.789V126H157.959L157.915 125.434C157.553 125.876 157.05 126.098 156.406 126.098C155.794 126.098 155.294 125.847 154.907 125.346C154.523 124.844 154.331 124.19 154.331 123.383V123.314ZM155.234 123.417C155.234 124.016 155.358 124.485 155.605 124.823C155.852 125.162 156.194 125.331 156.63 125.331C157.203 125.331 157.622 125.074 157.885 124.56V122.133C157.615 121.635 157.2 121.386 156.64 121.386C156.198 121.386 155.852 121.557 155.605 121.898C155.358 122.24 155.234 122.746 155.234 123.417ZM162.487 126.098C161.771 126.098 161.188 125.863 160.739 125.395C160.29 124.923 160.065 124.293 160.065 123.505V123.339C160.065 122.815 160.165 122.348 160.363 121.938C160.565 121.524 160.845 121.202 161.203 120.971C161.564 120.736 161.955 120.619 162.375 120.619C163.062 120.619 163.596 120.845 163.977 121.298C164.357 121.75 164.548 122.398 164.548 123.241V123.617H160.969C160.982 124.138 161.133 124.56 161.423 124.882C161.716 125.201 162.087 125.36 162.536 125.36C162.855 125.36 163.125 125.295 163.347 125.165C163.568 125.035 163.762 124.862 163.928 124.647L164.479 125.077C164.037 125.757 163.373 126.098 162.487 126.098ZM162.375 121.361C162.01 121.361 161.704 121.495 161.457 121.762C161.21 122.025 161.057 122.396 160.998 122.875H163.645V122.807C163.618 122.348 163.495 121.993 163.273 121.742C163.052 121.488 162.753 121.361 162.375 121.361ZM166.679 126H165.776V118.5H166.679V126ZM171.305 124.599C171.305 124.354 171.213 124.166 171.027 124.032C170.845 123.896 170.524 123.778 170.065 123.681C169.61 123.583 169.247 123.466 168.976 123.329C168.709 123.192 168.511 123.03 168.381 122.841C168.254 122.652 168.19 122.427 168.19 122.167C168.19 121.734 168.373 121.368 168.737 121.068C169.105 120.769 169.574 120.619 170.143 120.619C170.742 120.619 171.227 120.774 171.598 121.083C171.973 121.392 172.16 121.788 172.16 122.27H171.252C171.252 122.022 171.146 121.809 170.934 121.63C170.726 121.451 170.462 121.361 170.143 121.361C169.815 121.361 169.557 121.433 169.372 121.576C169.186 121.719 169.094 121.907 169.094 122.138C169.094 122.356 169.18 122.52 169.352 122.631C169.525 122.742 169.836 122.847 170.285 122.948C170.737 123.049 171.104 123.17 171.384 123.31C171.664 123.45 171.87 123.619 172.004 123.817C172.14 124.013 172.209 124.252 172.209 124.535C172.209 125.007 172.02 125.386 171.642 125.673C171.265 125.956 170.775 126.098 170.173 126.098C169.749 126.098 169.375 126.023 169.05 125.873C168.724 125.723 168.469 125.515 168.283 125.248C168.101 124.978 168.01 124.687 168.01 124.374H168.913C168.929 124.677 169.05 124.918 169.274 125.097C169.502 125.272 169.802 125.36 170.173 125.36C170.514 125.36 170.788 125.292 170.993 125.155C171.201 125.015 171.305 124.83 171.305 124.599ZM40.5635 167.349H38.1807V166.611H40.5635V167.349ZM43.4271 167.349H41.0443V166.611H43.4271V167.349Z" fill="white"/>
<path d="M46.6426 95.2695C46.6426 94.7161 46.4473 94.293 46.0566 94C45.666 93.7005 44.9629 93.388 43.9473 93.0625C42.9316 92.7305 42.1276 92.4049 41.5352 92.0859C39.9206 91.2135 39.1133 90.0384 39.1133 88.5605C39.1133 87.7923 39.3281 87.1087 39.7578 86.5098C40.194 85.9043 40.8158 85.4323 41.623 85.0938C42.4368 84.7552 43.3483 84.5859 44.3574 84.5859C45.373 84.5859 46.278 84.7715 47.0723 85.1426C47.8665 85.5072 48.4818 86.0247 48.918 86.6953C49.3607 87.3659 49.582 88.1276 49.582 88.9805H46.6523C46.6523 88.3294 46.4473 87.8249 46.0371 87.4668C45.627 87.1022 45.0508 86.9199 44.3086 86.9199C43.5924 86.9199 43.0358 87.0729 42.6387 87.3789C42.2415 87.6784 42.043 88.0755 42.043 88.5703C42.043 89.0326 42.2741 89.4199 42.7363 89.7324C43.2051 90.0449 43.8919 90.3379 44.7969 90.6113C46.4635 91.1126 47.6777 91.7344 48.4395 92.4766C49.2012 93.2188 49.582 94.1432 49.582 95.25C49.582 96.4805 49.1165 97.4473 48.1855 98.1504C47.2546 98.847 46.0013 99.1953 44.4258 99.1953C43.332 99.1953 42.3359 98.9967 41.4375 98.5996C40.5391 98.196 39.8522 97.6458 39.377 96.9492C38.9082 96.2526 38.6738 95.4453 38.6738 94.5273H41.6133C41.6133 96.0964 42.5508 96.8809 44.4258 96.8809C45.1224 96.8809 45.666 96.7409 46.0566 96.4609C46.4473 96.1745 46.6426 95.7773 46.6426 95.2695ZM55.4266 94.7617L54.4109 95.7773V99H51.5887V84H54.4109V92.3105L54.9578 91.6074L57.6629 88.4336H61.0516L57.2332 92.8379L61.3836 99H58.1414L55.4266 94.7617ZM67.1402 99.1953C65.5908 99.1953 64.3277 98.7201 63.3512 97.7695C62.3811 96.819 61.8961 95.5527 61.8961 93.9707V93.6973C61.8961 92.6361 62.1012 91.6888 62.5113 90.8555C62.9215 90.0156 63.5009 89.3711 64.2496 88.9219C65.0048 88.4661 65.8642 88.2383 66.8277 88.2383C68.273 88.2383 69.4091 88.694 70.2359 89.6055C71.0693 90.5169 71.4859 91.8092 71.4859 93.4824V94.6348H64.7574C64.8486 95.3249 65.122 95.8783 65.5777 96.2949C66.04 96.7116 66.6227 96.9199 67.3258 96.9199C68.413 96.9199 69.2626 96.526 69.8746 95.7383L71.2613 97.291C70.8382 97.89 70.2652 98.3587 69.5426 98.6973C68.8199 99.0293 68.0191 99.1953 67.1402 99.1953ZM66.818 90.5234C66.2581 90.5234 65.8023 90.7122 65.4508 91.0898C65.1057 91.4674 64.8844 92.0078 64.7867 92.7109H68.7125V92.4863C68.6995 91.8613 68.5302 91.3796 68.2047 91.041C67.8792 90.696 67.4169 90.5234 66.818 90.5234ZM76.6762 85.8359V88.4336H78.4828V90.5039H76.6762V95.7773C76.6762 96.168 76.751 96.4479 76.9008 96.6172C77.0505 96.7865 77.337 96.8711 77.7602 96.8711C78.0727 96.8711 78.3493 96.8483 78.5902 96.8027V98.9414C78.0368 99.1107 77.4672 99.1953 76.8812 99.1953C74.9021 99.1953 73.893 98.196 73.8539 96.1973V90.5039H72.3109V88.4336H73.8539V85.8359H76.6762ZM84.6496 96.9199C85.1704 96.9199 85.5936 96.7767 85.9191 96.4902C86.2447 96.2038 86.4139 95.8229 86.427 95.3477H89.0734C89.0669 96.0638 88.8716 96.7214 88.4875 97.3203C88.1034 97.9128 87.576 98.375 86.9055 98.707C86.2414 99.0326 85.5057 99.1953 84.6984 99.1953C83.188 99.1953 81.9966 98.7168 81.1242 97.7598C80.2518 96.7962 79.8156 95.4681 79.8156 93.7754V93.5898C79.8156 91.9622 80.2486 90.6634 81.1145 89.6934C81.9803 88.7233 83.1685 88.2383 84.6789 88.2383C86.0005 88.2383 87.0585 88.6159 87.8527 89.3711C88.6535 90.1198 89.0604 91.1191 89.0734 92.3691H86.427C86.4139 91.8223 86.2447 91.3796 85.9191 91.041C85.5936 90.696 85.1639 90.5234 84.6301 90.5234C83.9725 90.5234 83.4745 90.7643 83.1359 91.2461C82.8039 91.7214 82.6379 92.4961 82.6379 93.5703V93.8633C82.6379 94.9505 82.8039 95.7318 83.1359 96.207C83.468 96.6823 83.9725 96.9199 84.6496 96.9199ZM93.6387 89.5859C94.3874 88.6875 95.3281 88.2383 96.4609 88.2383C98.7526 88.2383 99.9147 89.5697 99.9473 92.2324V99H97.125V92.3105C97.125 91.7051 96.9948 91.2591 96.7344 90.9727C96.474 90.6797 96.041 90.5332 95.4355 90.5332C94.6087 90.5332 94.0098 90.8522 93.6387 91.4902V99H90.8164V84H93.6387V89.5859ZM113.223 84.7812V94.1465C113.223 95.7025 112.735 96.9329 111.759 97.8379C110.789 98.7428 109.46 99.1953 107.774 99.1953C106.114 99.1953 104.796 98.7559 103.819 97.877C102.843 96.998 102.345 95.7904 102.325 94.2539V84.7812H105.255V94.166C105.255 95.097 105.476 95.7773 105.919 96.207C106.368 96.6302 106.986 96.8418 107.774 96.8418C109.421 96.8418 110.258 95.9759 110.284 94.2441V84.7812H113.223ZM118.755 93.9902V99H115.826V84.7812H121.373C122.44 84.7812 123.378 84.9766 124.185 85.3672C124.999 85.7578 125.624 86.3145 126.06 87.0371C126.496 87.7533 126.714 88.5703 126.714 89.4883C126.714 90.8815 126.236 91.9818 125.279 92.7891C124.328 93.5898 123.01 93.9902 121.324 93.9902H118.755ZM118.755 91.6172H121.373C122.147 91.6172 122.737 91.4349 123.14 91.0703C123.55 90.7057 123.755 90.1849 123.755 89.5078C123.755 88.8112 123.55 88.248 123.14 87.8184C122.73 87.3887 122.164 87.1673 121.441 87.1543H118.755V91.6172Z" fill="white"/>
</g>
<defs>
  
  <linearGradient id="skyGradient" x1="100%" y1="100%" gradientTransform="rotate(45)>
       
       
            <stop offset=" 0%" stop-color="#e73c7e">
                                <animate attributeName="stop-color"
                                    values="#ee7752;#e73c7e;#;#23d5ab;#23d5ab;23a6d5;#e73c7e;#ee7752" dur="14s"
                                    repeatCount="indefinite" />
                                </stop>

                                <stop offset="100%" stop-color="#e73c7e">
                                    <animate attributeName="stop-color"
                                        values="#ee7752;#e73c7e;#;#23d5ab;#23d5ab;23a6d5;#e73c7e;#ee7752" dur="14s"
                                        repeatCount="indefinite" />
                                    <animate attributeName="offset" values=".95;.80;.60;.40;.20;0;.20;.40;.60;.80;.95"
                                        dur="14s" repeatCount="indefinite" />
                                </stop>

                            </linearGradient>
  
  
  
  
<filter id="filter0_d" x="12.8955" y="0.508545" width="190.246" height="216.233" filterUnits="userSpaceOnUse" color-interpolation-filters="sRGB">
<feFlood flood-opacity="0" result="BackgroundImageFix"/>
<feColorMatrix in="SourceAlpha" type="matrix" values="0 0 0 0 0 0 0 0 0 0 0 0 0 0 0 0 0 0 127 0" result="hardAlpha"/>
<feOffset dy="4"/>
<feGaussianBlur stdDeviation="2"/>
<feComposite in2="hardAlpha" operator="out"/>
<feColorMatrix type="matrix" values="0 0 0 0 0 0 0 0 0 0 0 0 0 0 0 0 0 0 0.25 0"/>
<feBlend mode="normal" in2="BackgroundImageFix" result="effect1_dropShadow"/>
<feBlend mode="normal" in="SourceGraphic" in2="effect1_dropShadow" result="shape"/>
</filter>
<filter id="filter1_d" x="34.1807" y="84" width="142.028" height="91.3486" filterUnits="userSpaceOnUse" color-interpolation-filters="sRGB">
<feFlood flood-opacity="0" result="BackgroundImageFix"/>
<feColorMatrix in="SourceAlpha" type="matrix" values="0 0 0 0 0 0 0 0 0 0 0 0 0 0 0 0 0 0 127 0" result="hardAlpha"/>
<feOffset dy="4"/>
<feGaussianBlur stdDeviation="2"/>
<feComposite in2="hardAlpha" operator="out"/>
<feColorMatrix type="matrix" values="0 0 0 0 0 0 0 0 0 0 0 0 0 0 0 0 0 0 0.25 0"/>
<feBlend mode="normal" in2="BackgroundImageFix" result="effect1_dropShadow"/>
<feBlend mode="normal" in="SourceGraphic" in2="effect1_dropShadow" result="shape"/>
</filter>
  
  
  
</defs>
</svg>
