<?xml version="1.0" standalone="no"?>
<!DOCTYPE svg PUBLIC "-//W3C//DTD SVG 20010904//EN"
 "http://www.w3.org/TR/2001/REC-SVG-20010904/DTD/svg10.dtd">
<svg version="1.0" xmlns="http://www.w3.org/2000/svg"
 width="512.000000pt" height="512.000000pt" viewBox="0 0 512.000000 512.000000"
 preserveAspectRatio="xMidYMid meet">

<g transform="translate(0.000000,512.000000) scale(0.100000,-0.100000)"
fill="#000000" stroke="none">
<path d="M986 5104 c-171 -41 -315 -185 -361 -359 -13 -52 -15 -248 -15 -1600
l0 -1540 23 -39 c14 -25 39 -48 66 -63 l44 -23 596 0 c558 0 599 -2 636 -19
48 -22 79 -54 100 -103 13 -32 15 -118 15 -631 l0 -594 23 -44 c16 -31 36 -51
67 -67 l44 -22 921 0 c1011 0 989 -1 1105 61 73 39 160 125 199 199 65 122 61
-40 61 2300 0 2340 4 2178 -61 2301 -65 120 -205 224 -338 249 -34 6 -596 10
-1560 9 -1265 -1 -1515 -3 -1565 -15z m1687 -519 c159 -34 304 -147 376 -297
80 -165 80 -325 0 -488 -169 -343 -615 -416 -885 -146 -218 218 -221 558 -6
775 80 80 154 125 254 151 88 23 170 25 261 5z m255 -1241 c157 -63 310 -142
350 -182 52 -52 87 -121 101 -197 14 -76 14 -279 0 -330 -14 -51 -65 -100
-117 -114 -29 -8 -246 -11 -735 -9 l-693 3 -41 27 c-68 45 -75 72 -71 281 3
175 4 184 31 238 52 107 121 155 392 270 l90 38 313 1 314 0 66 -26z m638
-1310 c51 -24 77 -68 82 -136 4 -50 1 -64 -22 -98 -53 -81 30 -75 -1071 -75
-1101 0 -1018 -6 -1071 75 -23 34 -26 48 -22 98 5 68 30 111 80 135 30 15 131
17 1011 17 883 0 982 -2 1013 -16z m0 -950 c49 -23 77 -68 82 -129 6 -68 -18
-118 -71 -153 l-41 -27 -480 -3 c-265 -2 -504 0 -533 3 -29 3 -67 16 -84 28
-98 66 -97 209 1 274 l33 23 529 0 c468 0 534 -2 564 -16z"/>
<path d="M704 1326 c-79 -35 -116 -144 -76 -222 12 -23 234 -252 544 -561 447
-445 529 -523 565 -533 76 -23 158 11 195 80 17 33 18 64 16 592 -3 544 -3
557 -24 584 -11 15 -33 37 -48 48 -27 21 -39 21 -584 23 -454 2 -563 0 -588
-11z"/>
</g>
</svg>
