<svg width="192" height="181" viewBox="0 0 192 181" fill="none" xmlns="http://www.w3.org/2000/svg">
<g filter="url(#filter0_d)">
<path d="M163.674 15.5931C177.984 30.0086 182.056 54.1894 185.197 77.789C188.338 101.389 190.665 124.291 181.707 141.612C172.865 158.934 152.621 170.676 133.192 172.652C113.763 174.745 95.0322 166.956 74.2071 161.027C53.4982 155.098 30.6952 150.913 17.3159 136.962C3.93659 123.012 -0.0190415 99.0635 8.47391 82.0904C16.9669 65.0011 38.0247 54.7707 55.3597 40.9365C72.6946 26.986 86.4229 9.31541 105.619 2.80519C124.699 -3.58878 149.364 1.06138 163.674 15.5931Z" fill="#FF3F62"/>
</g>
<path d="M38.8311 92H37.8936V84.8906H38.8311V92ZM46.3504 91.4775C45.9988 91.891 45.4829 92.0977 44.8025 92.0977C44.2394 92.0977 43.8097 91.9349 43.5135 91.6094C43.2205 91.2806 43.0724 90.7956 43.0691 90.1543V86.7168H43.9725V90.1299C43.9725 90.9307 44.298 91.3311 44.949 91.3311C45.6391 91.3311 46.0981 91.0739 46.326 90.5596V86.7168H47.2293V92H46.3699L46.3504 91.4775ZM51.7824 90.5986C51.7824 90.3545 51.6896 90.1657 51.5041 90.0322C51.3218 89.8955 51.0012 89.7783 50.5422 89.6807C50.0865 89.583 49.7235 89.4658 49.4533 89.3291C49.1864 89.1924 48.9878 89.0296 48.8576 88.8408C48.7307 88.652 48.6672 88.4274 48.6672 88.167C48.6672 87.734 48.8495 87.3678 49.2141 87.0684C49.5819 86.7689 50.0507 86.6191 50.6203 86.6191C51.2193 86.6191 51.7043 86.7738 52.0754 87.083C52.4497 87.3923 52.6369 87.7878 52.6369 88.2695H51.7287C51.7287 88.0221 51.6229 87.8089 51.4113 87.6299C51.203 87.4508 50.9393 87.3613 50.6203 87.3613C50.2915 87.3613 50.0344 87.4329 49.8488 87.5762C49.6633 87.7194 49.5705 87.9066 49.5705 88.1377C49.5705 88.3558 49.6568 88.5202 49.8293 88.6309C50.0018 88.7415 50.3127 88.8473 50.7619 88.9482C51.2144 89.0492 51.5806 89.1696 51.8605 89.3096C52.1405 89.4495 52.3472 89.6188 52.4807 89.8174C52.6174 90.0127 52.6857 90.252 52.6857 90.5352C52.6857 91.0072 52.4969 91.3864 52.1193 91.6729C51.7417 91.9561 51.2518 92.0977 50.6496 92.0977C50.2264 92.0977 49.8521 92.0228 49.5266 91.873C49.201 91.7233 48.9455 91.515 48.76 91.248C48.5777 90.9779 48.4865 90.6865 48.4865 90.374H49.3898C49.4061 90.6768 49.5266 90.9176 49.7512 91.0967C49.979 91.2725 50.2785 91.3604 50.6496 91.3604C50.9914 91.3604 51.2648 91.292 51.4699 91.1553C51.6783 91.0153 51.7824 90.8298 51.7824 90.5986ZM56.1549 92.0977C55.4387 92.0977 54.8561 91.8633 54.4068 91.3945C53.9576 90.9225 53.733 90.2926 53.733 89.5049V89.3389C53.733 88.8148 53.8323 88.3477 54.0309 87.9375C54.2327 87.5241 54.5126 87.2018 54.8707 86.9707C55.232 86.7363 55.6227 86.6191 56.0426 86.6191C56.7294 86.6191 57.2633 86.8454 57.6441 87.2979C58.025 87.7503 58.2154 88.3981 58.2154 89.2412V89.6172H54.6363C54.6493 90.138 54.8007 90.5596 55.0904 90.8818C55.3834 91.2008 55.7545 91.3604 56.2037 91.3604C56.5227 91.3604 56.7929 91.2952 57.0143 91.165C57.2356 91.0348 57.4293 90.8623 57.5953 90.6475L58.1471 91.0771C57.7044 91.7575 57.0403 92.0977 56.1549 92.0977ZM56.0426 87.3613C55.678 87.3613 55.372 87.4948 55.1246 87.7617C54.8772 88.0254 54.7242 88.3965 54.6656 88.875H57.3121V88.8066C57.2861 88.3477 57.1624 87.9928 56.941 87.7422C56.7197 87.4883 56.4202 87.3613 56.0426 87.3613ZM63.1713 85.4375V86.7168H64.1576V87.415H63.1713V90.6914C63.1713 90.903 63.2152 91.0625 63.3031 91.1699C63.391 91.2741 63.5408 91.3262 63.7523 91.3262C63.8565 91.3262 63.9997 91.3066 64.182 91.2676V92C63.9444 92.0651 63.7133 92.0977 63.4887 92.0977C63.085 92.0977 62.7807 91.9756 62.5756 91.7314C62.3705 91.4873 62.268 91.1406 62.268 90.6914V87.415H61.3061V86.7168H62.268V85.4375H63.1713ZM66.2205 87.3564C66.6209 86.8649 67.1417 86.6191 67.783 86.6191C68.8995 86.6191 69.4627 87.249 69.4725 88.5088V92H68.5691V88.5039C68.5659 88.123 68.478 87.8415 68.3055 87.6592C68.1362 87.4769 67.8709 87.3857 67.5096 87.3857C67.2166 87.3857 66.9594 87.4639 66.7381 87.6201C66.5167 87.7764 66.3442 87.9814 66.2205 88.2354V92H65.3172V84.5H66.2205V87.3564ZM71.9064 92H71.0031V86.7168H71.9064V92ZM70.9299 85.3154C70.9299 85.1689 70.9738 85.0452 71.0617 84.9443C71.1529 84.8434 71.2863 84.793 71.4621 84.793C71.6379 84.793 71.7714 84.8434 71.8625 84.9443C71.9536 85.0452 71.9992 85.1689 71.9992 85.3154C71.9992 85.4619 71.9536 85.584 71.8625 85.6816C71.7714 85.7793 71.6379 85.8281 71.4621 85.8281C71.2863 85.8281 71.1529 85.7793 71.0617 85.6816C70.9738 85.584 70.9299 85.4619 70.9299 85.3154ZM76.5328 90.5986C76.5328 90.3545 76.44 90.1657 76.2545 90.0322C76.0722 89.8955 75.7516 89.7783 75.2926 89.6807C74.8369 89.583 74.4739 89.4658 74.2037 89.3291C73.9368 89.1924 73.7382 89.0296 73.608 88.8408C73.4811 88.652 73.4176 88.4274 73.4176 88.167C73.4176 87.734 73.5999 87.3678 73.9645 87.0684C74.3323 86.7689 74.801 86.6191 75.3707 86.6191C75.9697 86.6191 76.4547 86.7738 76.8258 87.083C77.2001 87.3923 77.3873 87.7878 77.3873 88.2695H76.4791C76.4791 88.0221 76.3733 87.8089 76.1617 87.6299C75.9534 87.4508 75.6897 87.3613 75.3707 87.3613C75.0419 87.3613 74.7848 87.4329 74.5992 87.5762C74.4137 87.7194 74.3209 87.9066 74.3209 88.1377C74.3209 88.3558 74.4072 88.5202 74.5797 88.6309C74.7522 88.7415 75.0631 88.8473 75.5123 88.9482C75.9648 89.0492 76.331 89.1696 76.6109 89.3096C76.8909 89.4495 77.0976 89.6188 77.2311 89.8174C77.3678 90.0127 77.4361 90.252 77.4361 90.5352C77.4361 91.0072 77.2473 91.3864 76.8697 91.6729C76.4921 91.9561 76.0022 92.0977 75.4 92.0977C74.9768 92.0977 74.6025 92.0228 74.277 91.873C73.9514 91.7233 73.6959 91.515 73.5104 91.248C73.3281 90.9779 73.2369 90.6865 73.2369 90.374H74.1402C74.1565 90.6768 74.277 90.9176 74.5016 91.0967C74.7294 91.2725 75.0289 91.3604 75.4 91.3604C75.7418 91.3604 76.0152 91.292 76.2203 91.1553C76.4286 91.0153 76.5328 90.8298 76.5328 90.5986ZM81.7377 92V87.415H80.9027V86.7168H81.7377V86.1748C81.7377 85.6084 81.8891 85.1706 82.1918 84.8613C82.4945 84.5521 82.9226 84.3975 83.476 84.3975C83.6843 84.3975 83.891 84.4251 84.0961 84.4805L84.0473 85.2129C83.8943 85.1836 83.7315 85.1689 83.559 85.1689C83.266 85.1689 83.0398 85.2552 82.8803 85.4277C82.7208 85.597 82.641 85.8411 82.641 86.1602V86.7168H83.7689V87.415H82.641V92H81.7377ZM84.6307 89.3096C84.6307 88.792 84.7316 88.3265 84.9334 87.9131C85.1385 87.4997 85.4217 87.1807 85.783 86.9561C86.1476 86.7314 86.5626 86.6191 87.0281 86.6191C87.7475 86.6191 88.3286 86.8682 88.7713 87.3662C89.2173 87.8643 89.4402 88.5267 89.4402 89.3535V89.417C89.4402 89.9313 89.341 90.3936 89.1424 90.8037C88.9471 91.2106 88.6655 91.528 88.2977 91.7559C87.9331 91.9837 87.5132 92.0977 87.0379 92.0977C86.3217 92.0977 85.7407 91.8486 85.2947 91.3506C84.852 90.8525 84.6307 90.1934 84.6307 89.373V89.3096ZM85.5389 89.417C85.5389 90.0029 85.674 90.4733 85.9441 90.8281C86.2176 91.1829 86.5822 91.3604 87.0379 91.3604C87.4969 91.3604 87.8615 91.1813 88.1316 90.8232C88.4018 90.4619 88.5369 89.9574 88.5369 89.3096C88.5369 88.7301 88.3986 88.2614 88.1219 87.9033C87.8484 87.542 87.4839 87.3613 87.0281 87.3613C86.5822 87.3613 86.2225 87.5387 85.949 87.8936C85.6756 88.2484 85.5389 88.7562 85.5389 89.417ZM93.2268 87.5273C93.09 87.5046 92.9419 87.4932 92.7824 87.4932C92.19 87.4932 91.788 87.7454 91.5764 88.25V92H90.673V86.7168H91.552L91.5666 87.3271C91.8628 86.8551 92.2827 86.6191 92.8264 86.6191C93.0021 86.6191 93.1356 86.6419 93.2268 86.6875V87.5273ZM97.5918 86.7168L97.6162 87.3027C98.0036 86.847 98.526 86.6191 99.1836 86.6191C99.9225 86.6191 100.425 86.9023 100.692 87.4688C100.868 87.2148 101.096 87.0098 101.376 86.8535C101.659 86.6973 101.993 86.6191 102.377 86.6191C103.536 86.6191 104.125 87.2327 104.145 88.46V92H103.241V88.5137C103.241 88.1361 103.155 87.8545 102.982 87.6689C102.81 87.4801 102.52 87.3857 102.113 87.3857C101.778 87.3857 101.5 87.4867 101.278 87.6885C101.057 87.887 100.928 88.1556 100.893 88.4941V92H99.9844V88.5381C99.9844 87.7699 99.6084 87.3857 98.8564 87.3857C98.264 87.3857 97.8587 87.638 97.6406 88.1426V92H96.7373V86.7168H97.5918ZM108.873 92C108.821 91.8958 108.779 91.7103 108.746 91.4434C108.327 91.8796 107.825 92.0977 107.243 92.0977C106.722 92.0977 106.294 91.9512 105.958 91.6582C105.626 91.362 105.46 90.9876 105.46 90.5352C105.46 89.985 105.669 89.5586 106.085 89.2559C106.505 88.9499 107.094 88.7969 107.853 88.7969H108.732V88.3818C108.732 88.0661 108.637 87.8154 108.449 87.6299C108.26 87.4411 107.982 87.3467 107.614 87.3467C107.291 87.3467 107.021 87.4281 106.803 87.5908C106.585 87.7536 106.476 87.9505 106.476 88.1816H105.568C105.568 87.918 105.661 87.6641 105.846 87.4199C106.035 87.1725 106.289 86.9772 106.608 86.834C106.93 86.6908 107.283 86.6191 107.667 86.6191C108.276 86.6191 108.753 86.7721 109.098 87.0781C109.443 87.3809 109.622 87.7992 109.635 88.333V90.7646C109.635 91.2497 109.697 91.6354 109.821 91.9219V92H108.873ZM107.374 91.3115C107.658 91.3115 107.926 91.2383 108.18 91.0918C108.434 90.9453 108.618 90.7549 108.732 90.5205V89.4365H108.024C106.917 89.4365 106.364 89.7604 106.364 90.4082C106.364 90.6914 106.458 90.9128 106.647 91.0723C106.836 91.2318 107.078 91.3115 107.374 91.3115ZM112.626 89.5537L112.059 90.1445V92H111.156V84.5H112.059V89.0361L112.543 88.4551L114.188 86.7168H115.287L113.231 88.9238L115.526 92H114.467L112.626 89.5537ZM117.301 92H116.398V86.7168H117.301V92ZM116.324 85.3154C116.324 85.1689 116.368 85.0452 116.456 84.9443C116.547 84.8434 116.681 84.793 116.857 84.793C117.032 84.793 117.166 84.8434 117.257 84.9443C117.348 85.0452 117.394 85.1689 117.394 85.3154C117.394 85.4619 117.348 85.584 117.257 85.6816C117.166 85.7793 117.032 85.8281 116.857 85.8281C116.681 85.8281 116.547 85.7793 116.456 85.6816C116.368 85.584 116.324 85.4619 116.324 85.3154ZM119.706 86.7168L119.735 87.3809C120.139 86.873 120.666 86.6191 121.317 86.6191C122.434 86.6191 122.997 87.249 123.006 88.5088V92H122.103V88.5039C122.1 88.123 122.012 87.8415 121.839 87.6592C121.67 87.4769 121.405 87.3857 121.044 87.3857C120.751 87.3857 120.493 87.4639 120.272 87.6201C120.051 87.7764 119.878 87.9814 119.754 88.2354V92H118.851V86.7168H119.706ZM124.254 89.3145C124.254 88.4909 124.444 87.8366 124.825 87.3516C125.206 86.8633 125.711 86.6191 126.339 86.6191C126.983 86.6191 127.486 86.847 127.848 87.3027L127.892 86.7168H128.717V91.873C128.717 92.5566 128.513 93.0954 128.106 93.4893C127.703 93.8831 127.159 94.0801 126.476 94.0801C126.095 94.0801 125.722 93.9987 125.357 93.8359C124.993 93.6732 124.715 93.4502 124.522 93.167L124.991 92.625C125.379 93.1035 125.852 93.3428 126.412 93.3428C126.852 93.3428 127.193 93.2191 127.438 92.9717C127.685 92.7243 127.809 92.376 127.809 91.9268V91.4727C127.447 91.8893 126.954 92.0977 126.329 92.0977C125.711 92.0977 125.209 91.8486 124.825 91.3506C124.444 90.8525 124.254 90.1738 124.254 89.3145ZM125.162 89.417C125.162 90.0127 125.284 90.4814 125.528 90.8232C125.772 91.1618 126.114 91.3311 126.554 91.3311C127.123 91.3311 127.542 91.0723 127.809 90.5547V88.1426C127.532 87.638 127.117 87.3857 126.563 87.3857C126.124 87.3857 125.781 87.5566 125.533 87.8984C125.286 88.2402 125.162 88.7464 125.162 89.417ZM43.0547 101.744C42.9668 102.496 42.6885 103.077 42.2197 103.487C41.7542 103.894 41.1341 104.098 40.3594 104.098C39.5195 104.098 38.8457 103.797 38.3379 103.194C37.8333 102.592 37.5811 101.786 37.5811 100.777V100.094C37.5811 99.4329 37.6982 98.8519 37.9326 98.3506C38.1702 97.8493 38.5055 97.4652 38.9385 97.1982C39.3714 96.9281 39.8727 96.793 40.4424 96.793C41.1976 96.793 41.8031 97.0046 42.2588 97.4277C42.7145 97.8477 42.9798 98.4303 43.0547 99.1758H42.1123C42.0309 98.6094 41.8535 98.1992 41.5801 97.9453C41.3099 97.6914 40.9307 97.5645 40.4424 97.5645C39.8434 97.5645 39.373 97.7858 39.0312 98.2285C38.6927 98.6712 38.5234 99.3011 38.5234 100.118V100.807C38.5234 101.578 38.6846 102.192 39.0068 102.647C39.3291 103.103 39.7799 103.331 40.3594 103.331C40.8802 103.331 41.279 103.214 41.5557 102.979C41.8356 102.742 42.0212 102.33 42.1123 101.744H43.0547ZM44.058 101.31C44.058 100.792 44.1589 100.326 44.3607 99.9131C44.5658 99.4997 44.849 99.1807 45.2104 98.9561C45.5749 98.7314 45.99 98.6191 46.4555 98.6191C47.1749 98.6191 47.7559 98.8682 48.1986 99.3662C48.6446 99.8643 48.8676 100.527 48.8676 101.354V101.417C48.8676 101.931 48.7683 102.394 48.5697 102.804C48.3744 103.211 48.0928 103.528 47.725 103.756C47.3604 103.984 46.9405 104.098 46.4652 104.098C45.7491 104.098 45.168 103.849 44.7221 103.351C44.2794 102.853 44.058 102.193 44.058 101.373V101.31ZM44.9662 101.417C44.9662 102.003 45.1013 102.473 45.3715 102.828C45.6449 103.183 46.0095 103.36 46.4652 103.36C46.9242 103.36 47.2888 103.181 47.559 102.823C47.8292 102.462 47.9643 101.957 47.9643 101.31C47.9643 100.73 47.8259 100.261 47.5492 99.9033C47.2758 99.542 46.9112 99.3613 46.4555 99.3613C46.0095 99.3613 45.6498 99.5387 45.3764 99.8936C45.1029 100.248 44.9662 100.756 44.9662 101.417ZM50.9549 98.7168L50.9842 99.3809C51.3878 98.873 51.9152 98.6191 52.5662 98.6191C53.6827 98.6191 54.2459 99.249 54.2557 100.509V104H53.3523V100.504C53.3491 100.123 53.2612 99.8415 53.0887 99.6592C52.9194 99.4769 52.6541 99.3857 52.2928 99.3857C51.9998 99.3857 51.7426 99.4639 51.5213 99.6201C51.2999 99.7764 51.1274 99.9814 51.0037 100.235V104H50.1004V98.7168H50.9549ZM58.7941 102.599C58.7941 102.354 58.7014 102.166 58.5158 102.032C58.3335 101.896 58.0129 101.778 57.5539 101.681C57.0982 101.583 56.7352 101.466 56.465 101.329C56.1981 101.192 55.9995 101.03 55.8693 100.841C55.7424 100.652 55.6789 100.427 55.6789 100.167C55.6789 99.734 55.8612 99.3678 56.2258 99.0684C56.5936 98.7689 57.0624 98.6191 57.632 98.6191C58.231 98.6191 58.716 98.7738 59.0871 99.083C59.4615 99.3923 59.6486 99.7878 59.6486 100.27H58.7404C58.7404 100.022 58.6346 99.8089 58.423 99.6299C58.2147 99.4508 57.951 99.3613 57.632 99.3613C57.3033 99.3613 57.0461 99.4329 56.8605 99.5762C56.675 99.7194 56.5822 99.9066 56.5822 100.138C56.5822 100.356 56.6685 100.52 56.841 100.631C57.0135 100.742 57.3244 100.847 57.7736 100.948C58.2261 101.049 58.5923 101.17 58.8723 101.31C59.1522 101.45 59.3589 101.619 59.4924 101.817C59.6291 102.013 59.6975 102.252 59.6975 102.535C59.6975 103.007 59.5087 103.386 59.1311 103.673C58.7534 103.956 58.2635 104.098 57.6613 104.098C57.2382 104.098 56.8638 104.023 56.5383 103.873C56.2128 103.723 55.9572 103.515 55.7717 103.248C55.5894 102.978 55.4982 102.687 55.4982 102.374H56.4016C56.4178 102.677 56.5383 102.918 56.7629 103.097C56.9908 103.272 57.2902 103.36 57.6613 103.36C58.0031 103.36 58.2766 103.292 58.4816 103.155C58.69 103.015 58.7941 102.83 58.7941 102.599ZM62.1998 97.4375V98.7168H63.1861V99.415H62.1998V102.691C62.1998 102.903 62.2437 103.062 62.3316 103.17C62.4195 103.274 62.5693 103.326 62.7809 103.326C62.885 103.326 63.0283 103.307 63.2105 103.268V104C62.9729 104.065 62.7418 104.098 62.5172 104.098C62.1135 104.098 61.8092 103.976 61.6041 103.731C61.399 103.487 61.2965 103.141 61.2965 102.691V99.415H60.3346V98.7168H61.2965V97.4375H62.1998ZM66.8994 99.5273C66.7627 99.5046 66.6146 99.4932 66.4551 99.4932C65.8626 99.4932 65.4606 99.7454 65.249 100.25V104H64.3457V98.7168H65.2246L65.2393 99.3271C65.5355 98.8551 65.9554 98.6191 66.499 98.6191C66.6748 98.6191 66.8083 98.6419 66.8994 98.6875V99.5273ZM71.0961 103.478C70.7445 103.891 70.2286 104.098 69.5482 104.098C68.9851 104.098 68.5554 103.935 68.2592 103.609C67.9662 103.281 67.8181 102.796 67.8148 102.154V98.7168H68.7182V102.13C68.7182 102.931 69.0437 103.331 69.6947 103.331C70.3848 103.331 70.8438 103.074 71.0717 102.56V98.7168H71.975V104H71.1156L71.0961 103.478ZM75.5711 103.36C75.8934 103.36 76.1749 103.263 76.4158 103.067C76.6567 102.872 76.7902 102.628 76.8162 102.335H77.6707C77.6544 102.638 77.5503 102.926 77.3582 103.199C77.1661 103.473 76.909 103.691 76.5867 103.854C76.2677 104.016 75.9292 104.098 75.5711 104.098C74.8517 104.098 74.2788 103.858 73.8523 103.38C73.4292 102.898 73.2176 102.241 73.2176 101.407V101.256C73.2176 100.742 73.312 100.284 73.5008 99.8838C73.6896 99.4834 73.9598 99.1725 74.3113 98.9512C74.6661 98.7298 75.0844 98.6191 75.5662 98.6191C76.1587 98.6191 76.6502 98.7965 77.0408 99.1514C77.4347 99.5062 77.6447 99.9668 77.6707 100.533H76.8162C76.7902 100.191 76.66 99.9115 76.4256 99.6934C76.1945 99.472 75.908 99.3613 75.5662 99.3613C75.1072 99.3613 74.7508 99.5273 74.4969 99.8594C74.2462 100.188 74.1209 100.665 74.1209 101.29V101.461C74.1209 102.07 74.2462 102.538 74.4969 102.867C74.7475 103.196 75.1056 103.36 75.5711 103.36ZM80.0119 97.4375V98.7168H80.9982V99.415H80.0119V102.691C80.0119 102.903 80.0559 103.062 80.1437 103.17C80.2316 103.274 80.3814 103.326 80.593 103.326C80.6971 103.326 80.8404 103.307 81.0227 103.268V104C80.785 104.065 80.5539 104.098 80.3293 104.098C79.9257 104.098 79.6213 103.976 79.4162 103.731C79.2111 103.487 79.1086 103.141 79.1086 102.691V99.415H78.1467V98.7168H79.1086V97.4375H80.0119ZM83.1393 104H82.2359V98.7168H83.1393V104ZM82.1627 97.3154C82.1627 97.1689 82.2066 97.0452 82.2945 96.9443C82.3857 96.8434 82.5191 96.793 82.6949 96.793C82.8707 96.793 83.0042 96.8434 83.0953 96.9443C83.1865 97.0452 83.232 97.1689 83.232 97.3154C83.232 97.4619 83.1865 97.584 83.0953 97.6816C83.0042 97.7793 82.8707 97.8281 82.6949 97.8281C82.5191 97.8281 82.3857 97.7793 82.2945 97.6816C82.2066 97.584 82.1627 97.4619 82.1627 97.3154ZM84.4502 101.31C84.4502 100.792 84.5511 100.326 84.7529 99.9131C84.958 99.4997 85.2412 99.1807 85.6025 98.9561C85.9671 98.7314 86.3822 98.6191 86.8477 98.6191C87.5671 98.6191 88.1481 98.8682 88.5908 99.3662C89.0368 99.8643 89.2598 100.527 89.2598 101.354V101.417C89.2598 101.931 89.1605 102.394 88.9619 102.804C88.7666 103.211 88.485 103.528 88.1172 103.756C87.7526 103.984 87.3327 104.098 86.8574 104.098C86.1413 104.098 85.5602 103.849 85.1143 103.351C84.6715 102.853 84.4502 102.193 84.4502 101.373V101.31ZM85.3584 101.417C85.3584 102.003 85.4935 102.473 85.7637 102.828C86.0371 103.183 86.4017 103.36 86.8574 103.36C87.3164 103.36 87.681 103.181 87.9512 102.823C88.2214 102.462 88.3564 101.957 88.3564 101.31C88.3564 100.73 88.2181 100.261 87.9414 99.9033C87.668 99.542 87.3034 99.3613 86.8477 99.3613C86.4017 99.3613 86.042 99.5387 85.7686 99.8936C85.4951 100.248 85.3584 100.756 85.3584 101.417ZM91.3471 98.7168L91.3764 99.3809C91.78 98.873 92.3074 98.6191 92.9584 98.6191C94.0749 98.6191 94.6381 99.249 94.6479 100.509V104H93.7445V100.504C93.7413 100.123 93.6534 99.8415 93.4809 99.6592C93.3116 99.4769 93.0463 99.3857 92.685 99.3857C92.392 99.3857 92.1348 99.4639 91.9135 99.6201C91.6921 99.7764 91.5196 99.9814 91.3959 100.235V104H90.4926V98.7168H91.3471ZM98.4709 101.314C98.4709 100.504 98.663 99.8529 99.0471 99.3613C99.4312 98.8665 99.9341 98.6191 100.556 98.6191C101.174 98.6191 101.664 98.8307 102.026 99.2539V96.5H102.929V104H102.099L102.055 103.434C101.694 103.876 101.191 104.098 100.546 104.098C99.9341 104.098 99.4344 103.847 99.0471 103.346C98.663 102.844 98.4709 102.19 98.4709 101.383V101.314ZM99.3742 101.417C99.3742 102.016 99.4979 102.485 99.7453 102.823C99.9927 103.162 100.335 103.331 100.771 103.331C101.344 103.331 101.762 103.074 102.026 102.56V100.133C101.755 99.6348 101.34 99.3857 100.78 99.3857C100.338 99.3857 99.9927 99.5566 99.7453 99.8984C99.4979 100.24 99.3742 100.746 99.3742 101.417ZM106.989 99.5273C106.852 99.5046 106.704 99.4932 106.545 99.4932C105.952 99.4932 105.55 99.7454 105.338 100.25V104H104.435V98.7168H105.314L105.329 99.3271C105.625 98.8551 106.045 98.6191 106.588 98.6191C106.764 98.6191 106.898 98.6419 106.989 98.6875V99.5273ZM110.99 104C110.938 103.896 110.896 103.71 110.863 103.443C110.443 103.88 109.942 104.098 109.359 104.098C108.839 104.098 108.41 103.951 108.075 103.658C107.743 103.362 107.577 102.988 107.577 102.535C107.577 101.985 107.785 101.559 108.202 101.256C108.622 100.95 109.211 100.797 109.97 100.797H110.849V100.382C110.849 100.066 110.754 99.8154 110.565 99.6299C110.377 99.4411 110.098 99.3467 109.73 99.3467C109.408 99.3467 109.138 99.4281 108.92 99.5908C108.702 99.7536 108.593 99.9505 108.593 100.182H107.685C107.685 99.918 107.777 99.6641 107.963 99.4199C108.152 99.1725 108.406 98.9772 108.725 98.834C109.047 98.6908 109.4 98.6191 109.784 98.6191C110.393 98.6191 110.87 98.7721 111.215 99.0781C111.56 99.3809 111.739 99.7992 111.752 100.333V102.765C111.752 103.25 111.814 103.635 111.938 103.922V104H110.99ZM109.491 103.312C109.774 103.312 110.043 103.238 110.297 103.092C110.551 102.945 110.735 102.755 110.849 102.521V101.437H110.141C109.034 101.437 108.48 101.76 108.48 102.408C108.48 102.691 108.575 102.913 108.764 103.072C108.952 103.232 109.195 103.312 109.491 103.312ZM117.946 102.755L118.961 98.7168H119.865L118.327 104H117.594L116.31 99.9961L115.06 104H114.328L112.794 98.7168H113.693L114.733 102.672L115.963 98.7168H116.691L117.946 102.755ZM121.869 104H120.966V98.7168H121.869V104ZM120.892 97.3154C120.892 97.1689 120.936 97.0452 121.024 96.9443C121.115 96.8434 121.249 96.793 121.425 96.793C121.6 96.793 121.734 96.8434 121.825 96.9443C121.916 97.0452 121.962 97.1689 121.962 97.3154C121.962 97.4619 121.916 97.584 121.825 97.6816C121.734 97.7793 121.6 97.8281 121.425 97.8281C121.249 97.8281 121.115 97.7793 121.024 97.6816C120.936 97.584 120.892 97.4619 120.892 97.3154ZM124.274 98.7168L124.303 99.3809C124.707 98.873 125.234 98.6191 125.885 98.6191C127.002 98.6191 127.565 99.249 127.574 100.509V104H126.671V100.504C126.668 100.123 126.58 99.8415 126.407 99.6592C126.238 99.4769 125.973 99.3857 125.612 99.3857C125.319 99.3857 125.061 99.4639 124.84 99.6201C124.619 99.7764 124.446 99.9814 124.322 100.235V104H123.419V98.7168H124.274ZM128.822 101.314C128.822 100.491 129.012 99.8366 129.393 99.3516C129.774 98.8633 130.279 98.6191 130.907 98.6191C131.551 98.6191 132.054 98.847 132.416 99.3027L132.46 98.7168H133.285V103.873C133.285 104.557 133.081 105.095 132.674 105.489C132.271 105.883 131.727 106.08 131.044 106.08C130.663 106.08 130.29 105.999 129.925 105.836C129.561 105.673 129.282 105.45 129.09 105.167L129.559 104.625C129.947 105.104 130.42 105.343 130.98 105.343C131.42 105.343 131.761 105.219 132.005 104.972C132.253 104.724 132.377 104.376 132.377 103.927V103.473C132.015 103.889 131.522 104.098 130.897 104.098C130.279 104.098 129.777 103.849 129.393 103.351C129.012 102.853 128.822 102.174 128.822 101.314ZM129.73 101.417C129.73 102.013 129.852 102.481 130.096 102.823C130.34 103.162 130.682 103.331 131.122 103.331C131.691 103.331 132.11 103.072 132.377 102.555V100.143C132.1 99.638 131.685 99.3857 131.131 99.3857C130.692 99.3857 130.349 99.5566 130.101 99.8984C129.854 100.24 129.73 100.746 129.73 101.417ZM137.828 102.599C137.828 102.354 137.735 102.166 137.55 102.032C137.368 101.896 137.047 101.778 136.588 101.681C136.132 101.583 135.769 101.466 135.499 101.329C135.232 101.192 135.034 101.03 134.903 100.841C134.776 100.652 134.713 100.427 134.713 100.167C134.713 99.734 134.895 99.3678 135.26 99.0684C135.628 98.7689 136.096 98.6191 136.666 98.6191C137.265 98.6191 137.75 98.7738 138.121 99.083C138.495 99.3923 138.683 99.7878 138.683 100.27H137.774C137.774 100.022 137.669 99.8089 137.457 99.6299C137.249 99.4508 136.985 99.3613 136.666 99.3613C136.337 99.3613 136.08 99.4329 135.895 99.5762C135.709 99.7194 135.616 99.9066 135.616 100.138C135.616 100.356 135.702 100.52 135.875 100.631C136.048 100.742 136.358 100.847 136.808 100.948C137.26 101.049 137.626 101.17 137.906 101.31C138.186 101.45 138.393 101.619 138.526 101.817C138.663 102.013 138.731 102.252 138.731 102.535C138.731 103.007 138.543 103.386 138.165 103.673C137.787 103.956 137.298 104.098 136.695 104.098C136.272 104.098 135.898 104.023 135.572 103.873C135.247 103.723 134.991 103.515 134.806 103.248C134.623 102.978 134.532 102.687 134.532 102.374H135.436C135.452 102.677 135.572 102.918 135.797 103.097C136.025 103.272 136.324 103.36 136.695 103.36C137.037 103.36 137.311 103.292 137.516 103.155C137.724 103.015 137.828 102.83 137.828 102.599ZM140.028 103.526C140.028 103.37 140.073 103.24 140.164 103.136C140.259 103.032 140.399 102.979 140.584 102.979C140.77 102.979 140.91 103.032 141.004 103.136C141.102 103.24 141.151 103.37 141.151 103.526C141.151 103.676 141.102 103.801 141.004 103.902C140.91 104.003 140.77 104.054 140.584 104.054C140.399 104.054 140.259 104.003 140.164 103.902C140.073 103.801 140.028 103.676 140.028 103.526ZM40.2861 145.524H37.5371V144.387H40.2861V145.524ZM44.2631 145.524H41.5141V144.387H44.2631V145.524Z" fill="white"/>
<path d="M46.2969 74.0703H41.1602L40.1836 77H37.0684L42.3613 62.7812H45.0762L50.3984 77H47.2832L46.2969 74.0703ZM41.9512 71.6973H45.5059L43.7188 66.375L41.9512 71.6973ZM57.952 75.9258C57.2553 76.7721 56.2918 77.1953 55.0613 77.1953C53.9285 77.1953 53.0626 76.8698 52.4637 76.2188C51.8712 75.5677 51.5685 74.6139 51.5555 73.3574V66.4336H54.3777V73.2598C54.3777 74.36 54.879 74.9102 55.8816 74.9102C56.8387 74.9102 57.4962 74.5781 57.8543 73.9141V66.4336H60.6863V77H58.0301L57.952 75.9258ZM66.3941 63.8359V66.4336H68.2008V68.5039H66.3941V73.7773C66.3941 74.168 66.469 74.4479 66.6187 74.6172C66.7685 74.7865 67.0549 74.8711 67.4781 74.8711C67.7906 74.8711 68.0673 74.8483 68.3082 74.8027V76.9414C67.7548 77.1107 67.1852 77.1953 66.5992 77.1953C64.6201 77.1953 63.6109 76.196 63.5719 74.1973V68.5039H62.0289V66.4336H63.5719V63.8359H66.3941ZM69.2406 71.6191C69.2406 70.571 69.4424 69.6367 69.8461 68.8164C70.2497 67.9961 70.8292 67.3613 71.5844 66.9121C72.3461 66.4629 73.2283 66.2383 74.2309 66.2383C75.6566 66.2383 76.8188 66.6745 77.7172 67.5469C78.6221 68.4193 79.1267 69.6042 79.2309 71.1016L79.2504 71.8242C79.2504 73.4453 78.7979 74.7474 77.893 75.7305C76.988 76.707 75.7738 77.1953 74.2504 77.1953C72.727 77.1953 71.5095 76.707 70.598 75.7305C69.6931 74.7539 69.2406 73.4258 69.2406 71.7461V71.6191ZM72.0629 71.8242C72.0629 72.8268 72.2517 73.5951 72.6293 74.1289C73.0069 74.6562 73.5473 74.9199 74.2504 74.9199C74.934 74.9199 75.4678 74.6595 75.852 74.1387C76.2361 73.6113 76.4281 72.7715 76.4281 71.6191C76.4281 70.6361 76.2361 69.8743 75.852 69.334C75.4678 68.7936 74.9275 68.5234 74.2309 68.5234C73.5408 68.5234 73.0069 68.7936 72.6293 69.334C72.2517 69.8678 72.0629 70.6979 72.0629 71.8242ZM92.5363 72.2637C92.4257 73.7936 91.8592 74.998 90.8371 75.877C89.8215 76.7559 88.4803 77.1953 86.8137 77.1953C84.9908 77.1953 83.5552 76.5833 82.507 75.3594C81.4654 74.1289 80.9445 72.4427 80.9445 70.3008V69.4316C80.9445 68.0645 81.1854 66.86 81.6672 65.8184C82.149 64.7767 82.8358 63.9792 83.7277 63.4258C84.6262 62.8659 85.6678 62.5859 86.8527 62.5859C88.4934 62.5859 89.815 63.0254 90.8176 63.9043C91.8202 64.7832 92.3996 66.0169 92.5559 67.6055H89.6262C89.5546 66.6875 89.2974 66.0234 88.8547 65.6133C88.4185 65.1966 87.7512 64.9883 86.8527 64.9883C85.8762 64.9883 85.1437 65.3398 84.6555 66.043C84.1737 66.7396 83.9263 67.8236 83.9133 69.2949V70.3691C83.9133 71.9056 84.1444 73.0286 84.6066 73.7383C85.0754 74.4479 85.8111 74.8027 86.8137 74.8027C87.7186 74.8027 88.3924 74.5977 88.8352 74.1875C89.2844 73.7708 89.5415 73.1296 89.6066 72.2637H92.5363ZM102.688 74.0703H97.5508L96.5742 77H93.459L98.752 62.7812H101.467L106.789 77H103.674L102.688 74.0703ZM98.3418 71.6973H101.896L100.109 66.375L98.3418 71.6973ZM108.317 77V62.7812H112.692C113.942 62.7812 115.059 63.0645 116.042 63.6309C117.031 64.1908 117.803 64.9915 118.356 66.0332C118.91 67.0684 119.186 68.2467 119.186 69.5684V70.2227C119.186 71.5443 118.913 72.7194 118.366 73.748C117.826 74.7767 117.061 75.5742 116.071 76.1406C115.082 76.707 113.965 76.9935 112.721 77H108.317ZM111.247 65.1543V74.6465H112.663C113.809 74.6465 114.684 74.2721 115.29 73.5234C115.895 72.7747 116.205 71.7038 116.218 70.3105V69.5586C116.218 68.1133 115.918 67.0195 115.319 66.2773C114.72 65.5286 113.845 65.1543 112.692 65.1543H111.247Z" fill="white"/>
<defs>
<filter id="filter0_d" x="0" y="0" width="192" height="181" filterUnits="userSpaceOnUse" color-interpolation-filters="sRGB">
<feFlood flood-opacity="0" result="BackgroundImageFix"/>
<feColorMatrix in="SourceAlpha" type="matrix" values="0 0 0 0 0 0 0 0 0 0 0 0 0 0 0 0 0 0 127 0" result="hardAlpha"/>
<feOffset dy="4"/>
<feGaussianBlur stdDeviation="2"/>
<feComposite in2="hardAlpha" operator="out"/>
<feColorMatrix type="matrix" values="0 0 0 0 0 0 0 0 0 0 0 0 0 0 0 0 0 0 0.25 0"/>
<feBlend mode="normal" in2="BackgroundImageFix" result="effect1_dropShadow"/>
<feBlend mode="normal" in="SourceGraphic" in2="effect1_dropShadow" result="shape"/>
</filter>
</defs>
</svg>
