<svg width="177" height="181" viewBox="0 0 177 181" fill="none" xmlns="http://www.w3.org/2000/svg">
<g filter="url(#filter0_d)">
<path d="M143.13 19.4468C161.749 34.56 174.121 59.6288 172.92 83.4981C171.718 107.367 157.064 130.157 138.326 145.99C119.707 161.823 96.8846 170.699 72.2603 172.618C47.636 174.537 21.2099 169.38 10.5193 153.547C-0.171232 137.594 5.11399 111.206 6.79565 86.3768C8.47731 61.6679 6.79565 38.6382 17.3661 23.525C28.0566 8.41172 51.1194 1.095 75.2632 0.135427C99.287 -0.944089 124.392 4.33355 143.13 19.4468Z" fill="#FF3F62"/>
</g>
<path d="M30.8301 84.8906V89.7246C30.8268 90.3952 30.6152 90.9437 30.1953 91.3701C29.7786 91.7965 29.2122 92.0358 28.4961 92.0879L28.2471 92.0977C27.4691 92.0977 26.849 91.8877 26.3867 91.4678C25.9245 91.0479 25.6901 90.4701 25.6836 89.7344V84.8906H26.6113V89.7051C26.6113 90.2194 26.7529 90.6198 27.0361 90.9062C27.3193 91.1895 27.723 91.3311 28.2471 91.3311C28.7777 91.3311 29.1829 91.1895 29.4629 90.9062C29.7461 90.623 29.8877 90.2243 29.8877 89.71V84.8906H30.8301ZM35.3441 90.5986C35.3441 90.3545 35.2514 90.1657 35.0658 90.0322C34.8835 89.8955 34.5629 89.7783 34.1039 89.6807C33.6482 89.583 33.2852 89.4658 33.015 89.3291C32.7481 89.1924 32.5495 89.0296 32.4193 88.8408C32.2924 88.652 32.2289 88.4274 32.2289 88.167C32.2289 87.734 32.4112 87.3678 32.7758 87.0684C33.1436 86.7689 33.6124 86.6191 34.182 86.6191C34.781 86.6191 35.266 86.7738 35.6371 87.083C36.0115 87.3923 36.1986 87.7878 36.1986 88.2695H35.2904C35.2904 88.0221 35.1846 87.8089 34.973 87.6299C34.7647 87.4508 34.501 87.3613 34.182 87.3613C33.8533 87.3613 33.5961 87.4329 33.4105 87.5762C33.225 87.7194 33.1322 87.9066 33.1322 88.1377C33.1322 88.3558 33.2185 88.5202 33.391 88.6309C33.5635 88.7415 33.8744 88.8473 34.3236 88.9482C34.7761 89.0492 35.1423 89.1696 35.4223 89.3096C35.7022 89.4495 35.9089 89.6188 36.0424 89.8174C36.1791 90.0127 36.2475 90.252 36.2475 90.5352C36.2475 91.0072 36.0587 91.3864 35.6811 91.6729C35.3035 91.9561 34.8135 92.0977 34.2113 92.0977C33.7882 92.0977 33.4138 92.0228 33.0883 91.873C32.7628 91.7233 32.5072 91.515 32.3217 91.248C32.1394 90.9779 32.0482 90.6865 32.0482 90.374H32.9516C32.9678 90.6768 33.0883 90.9176 33.3129 91.0967C33.5408 91.2725 33.8402 91.3604 34.2113 91.3604C34.5531 91.3604 34.8266 91.292 35.0316 91.1553C35.24 91.0153 35.3441 90.8298 35.3441 90.5986ZM39.7166 92.0977C39.0005 92.0977 38.4178 91.8633 37.9686 91.3945C37.5193 90.9225 37.2947 90.2926 37.2947 89.5049V89.3389C37.2947 88.8148 37.394 88.3477 37.5926 87.9375C37.7944 87.5241 38.0743 87.2018 38.4324 86.9707C38.7937 86.7363 39.1844 86.6191 39.6043 86.6191C40.2911 86.6191 40.825 86.8454 41.2059 87.2979C41.5867 87.7503 41.7771 88.3981 41.7771 89.2412V89.6172H38.198C38.2111 90.138 38.3624 90.5596 38.6521 90.8818C38.9451 91.2008 39.3162 91.3604 39.7654 91.3604C40.0844 91.3604 40.3546 91.2952 40.576 91.165C40.7973 91.0348 40.991 90.8623 41.157 90.6475L41.7088 91.0771C41.2661 91.7575 40.602 92.0977 39.7166 92.0977ZM39.6043 87.3613C39.2397 87.3613 38.9337 87.4948 38.6863 87.7617C38.4389 88.0254 38.2859 88.3965 38.2273 88.875H40.8738V88.8066C40.8478 88.3477 40.7241 87.9928 40.5027 87.7422C40.2814 87.4883 39.9819 87.3613 39.6043 87.3613ZM42.7072 89.3145C42.7072 88.5039 42.8993 87.8529 43.2834 87.3613C43.6675 86.8665 44.1704 86.6191 44.7922 86.6191C45.4107 86.6191 45.9006 86.8307 46.2619 87.2539V84.5H47.1652V92H46.3352L46.2912 91.4336C45.9299 91.8763 45.427 92.0977 44.7824 92.0977C44.1704 92.0977 43.6708 91.847 43.2834 91.3457C42.8993 90.8444 42.7072 90.1901 42.7072 89.3828V89.3145ZM43.6105 89.417C43.6105 90.016 43.7342 90.4847 43.9816 90.8232C44.229 91.1618 44.5708 91.3311 45.007 91.3311C45.5799 91.3311 45.9982 91.0739 46.2619 90.5596V88.1328C45.9917 87.6348 45.5767 87.3857 45.0168 87.3857C44.5741 87.3857 44.229 87.5566 43.9816 87.8984C43.7342 88.2402 43.6105 88.7464 43.6105 89.417ZM51.6963 92V87.415H50.8613V86.7168H51.6963V86.1748C51.6963 85.6084 51.8477 85.1706 52.1504 84.8613C52.4531 84.5521 52.8812 84.3975 53.4346 84.3975C53.6429 84.3975 53.8496 84.4251 54.0547 84.4805L54.0059 85.2129C53.8529 85.1836 53.6901 85.1689 53.5176 85.1689C53.2246 85.1689 52.9984 85.2552 52.8389 85.4277C52.6794 85.597 52.5996 85.8411 52.5996 86.1602V86.7168H53.7275V87.415H52.5996V92H51.6963ZM54.5893 89.3096C54.5893 88.792 54.6902 88.3265 54.892 87.9131C55.0971 87.4997 55.3803 87.1807 55.7416 86.9561C56.1062 86.7314 56.5212 86.6191 56.9867 86.6191C57.7061 86.6191 58.2872 86.8682 58.7299 87.3662C59.1758 87.8643 59.3988 88.5267 59.3988 89.3535V89.417C59.3988 89.9313 59.2995 90.3936 59.101 90.8037C58.9057 91.2106 58.6241 91.528 58.2563 91.7559C57.8917 91.9837 57.4717 92.0977 56.9965 92.0977C56.2803 92.0977 55.6993 91.8486 55.2533 91.3506C54.8106 90.8525 54.5893 90.1934 54.5893 89.373V89.3096ZM55.4975 89.417C55.4975 90.0029 55.6326 90.4733 55.9027 90.8281C56.1762 91.1829 56.5408 91.3604 56.9965 91.3604C57.4555 91.3604 57.8201 91.1813 58.0902 90.8232C58.3604 90.4619 58.4955 89.9574 58.4955 89.3096C58.4955 88.7301 58.3572 88.2614 58.0805 87.9033C57.807 87.542 57.4424 87.3613 56.9867 87.3613C56.5408 87.3613 56.1811 87.5387 55.9076 87.8936C55.6342 88.2484 55.4975 88.7562 55.4975 89.417ZM63.1854 87.5273C63.0486 87.5046 62.9005 87.4932 62.741 87.4932C62.1486 87.4932 61.7466 87.7454 61.535 88.25V92H60.6316V86.7168H61.5105L61.5252 87.3271C61.8214 86.8551 62.2413 86.6191 62.785 86.6191C62.9607 86.6191 63.0942 86.6419 63.1854 86.6875V87.5273ZM68.8199 91.3604C69.1422 91.3604 69.4238 91.2627 69.6646 91.0674C69.9055 90.8721 70.039 90.6279 70.065 90.335H70.9195C70.9033 90.6377 70.7991 90.9258 70.607 91.1992C70.415 91.4727 70.1578 91.6908 69.8355 91.8535C69.5165 92.0163 69.178 92.0977 68.8199 92.0977C68.1005 92.0977 67.5276 91.8584 67.1012 91.3799C66.678 90.8981 66.4664 90.2406 66.4664 89.4072V89.2559C66.4664 88.7415 66.5608 88.2842 66.7496 87.8838C66.9384 87.4834 67.2086 87.1725 67.5602 86.9512C67.915 86.7298 68.3333 86.6191 68.815 86.6191C69.4075 86.6191 69.899 86.7965 70.2896 87.1514C70.6835 87.5062 70.8935 87.9668 70.9195 88.5332H70.065C70.039 88.1914 69.9088 87.9115 69.6744 87.6934C69.4433 87.472 69.1568 87.3613 68.815 87.3613C68.3561 87.3613 67.9996 87.5273 67.7457 87.8594C67.4951 88.1882 67.3697 88.665 67.3697 89.29V89.4609C67.3697 90.0697 67.4951 90.5384 67.7457 90.8672C67.9964 91.196 68.3544 91.3604 68.8199 91.3604ZM71.7959 89.3096C71.7959 88.792 71.8968 88.3265 72.0986 87.9131C72.3037 87.4997 72.5869 87.1807 72.9482 86.9561C73.3128 86.7314 73.7279 86.6191 74.1934 86.6191C74.9128 86.6191 75.4938 86.8682 75.9365 87.3662C76.3825 87.8643 76.6055 88.5267 76.6055 89.3535V89.417C76.6055 89.9313 76.5062 90.3936 76.3076 90.8037C76.1123 91.2106 75.8307 91.528 75.4629 91.7559C75.0983 91.9837 74.6784 92.0977 74.2031 92.0977C73.487 92.0977 72.9059 91.8486 72.46 91.3506C72.0173 90.8525 71.7959 90.1934 71.7959 89.373V89.3096ZM72.7041 89.417C72.7041 90.0029 72.8392 90.4733 73.1094 90.8281C73.3828 91.1829 73.7474 91.3604 74.2031 91.3604C74.6621 91.3604 75.0267 91.1813 75.2969 90.8232C75.5671 90.4619 75.7021 89.9574 75.7021 89.3096C75.7021 88.7301 75.5638 88.2614 75.2871 87.9033C75.0137 87.542 74.6491 87.3613 74.1934 87.3613C73.7474 87.3613 73.3877 87.5387 73.1143 87.8936C72.8408 88.2484 72.7041 88.7562 72.7041 89.417ZM78.6928 86.7168L78.7221 87.3809C79.1257 86.873 79.6531 86.6191 80.3041 86.6191C81.4206 86.6191 81.9838 87.249 81.9936 88.5088V92H81.0902V88.5039C81.087 88.123 80.9991 87.8415 80.8266 87.6592C80.6573 87.4769 80.392 87.3857 80.0307 87.3857C79.7377 87.3857 79.4805 87.4639 79.2592 87.6201C79.0378 87.7764 78.8653 87.9814 78.7416 88.2354V92H77.8383V86.7168H78.6928ZM85.199 90.7744L86.5076 86.7168H87.4305L85.5359 92H84.8475L82.9334 86.7168H83.8563L85.199 90.7744ZM90.5236 92.0977C89.8075 92.0977 89.2248 91.8633 88.7756 91.3945C88.3264 90.9225 88.1018 90.2926 88.1018 89.5049V89.3389C88.1018 88.8148 88.201 88.3477 88.3996 87.9375C88.6014 87.5241 88.8814 87.2018 89.2395 86.9707C89.6008 86.7363 89.9914 86.6191 90.4113 86.6191C91.0982 86.6191 91.632 86.8454 92.0129 87.2979C92.3937 87.7503 92.5842 88.3981 92.5842 89.2412V89.6172H89.0051C89.0181 90.138 89.1695 90.5596 89.4592 90.8818C89.7521 91.2008 90.1232 91.3604 90.5725 91.3604C90.8915 91.3604 91.1617 91.2952 91.383 91.165C91.6044 91.0348 91.798 90.8623 91.9641 90.6475L92.5158 91.0771C92.0731 91.7575 91.409 92.0977 90.5236 92.0977ZM90.4113 87.3613C90.0467 87.3613 89.7408 87.4948 89.4934 87.7617C89.246 88.0254 89.093 88.3965 89.0344 88.875H91.6809V88.8066C91.6548 88.3477 91.5311 87.9928 91.3098 87.7422C91.0884 87.4883 90.7889 87.3613 90.4113 87.3613ZM96.2877 87.5273C96.151 87.5046 96.0029 87.4932 95.8434 87.4932C95.2509 87.4932 94.8489 87.7454 94.6373 88.25V92H93.734V86.7168H94.6129L94.6275 87.3271C94.9238 86.8551 95.3437 86.6191 95.8873 86.6191C96.0631 86.6191 96.1966 86.6419 96.2877 86.6875V87.5273ZM98.6924 85.4375V86.7168H99.6787V87.415H98.6924V90.6914C98.6924 90.903 98.7363 91.0625 98.8242 91.1699C98.9121 91.2741 99.0618 91.3262 99.2734 91.3262C99.3776 91.3262 99.5208 91.3066 99.7031 91.2676V92C99.4655 92.0651 99.2344 92.0977 99.0098 92.0977C98.6061 92.0977 98.3018 91.9756 98.0967 91.7314C97.8916 91.4873 97.7891 91.1406 97.7891 90.6914V87.415H96.8271V86.7168H97.7891V85.4375H98.6924ZM101.82 92H100.916V86.7168H101.82V92ZM100.843 85.3154C100.843 85.1689 100.887 85.0452 100.975 84.9443C101.066 84.8434 101.2 84.793 101.375 84.793C101.551 84.793 101.685 84.8434 101.776 84.9443C101.867 85.0452 101.912 85.1689 101.912 85.3154C101.912 85.4619 101.867 85.584 101.776 85.6816C101.685 85.7793 101.551 85.8281 101.375 85.8281C101.2 85.8281 101.066 85.7793 100.975 85.6816C100.887 85.584 100.843 85.4619 100.843 85.3154ZM104.224 86.7168L104.254 87.3809C104.657 86.873 105.185 86.6191 105.836 86.6191C106.952 86.6191 107.515 87.249 107.525 88.5088V92H106.622V88.5039C106.619 88.123 106.531 87.8415 106.358 87.6592C106.189 87.4769 105.924 87.3857 105.562 87.3857C105.269 87.3857 105.012 87.4639 104.791 87.6201C104.569 87.7764 104.397 87.9814 104.273 88.2354V92H103.37V86.7168H104.224ZM108.773 89.3145C108.773 88.4909 108.963 87.8366 109.344 87.3516C109.725 86.8633 110.229 86.6191 110.858 86.6191C111.502 86.6191 112.005 86.847 112.366 87.3027L112.41 86.7168H113.236V91.873C113.236 92.5566 113.032 93.0954 112.625 93.4893C112.222 93.8831 111.678 94.0801 110.994 94.0801C110.613 94.0801 110.241 93.9987 109.876 93.8359C109.512 93.6732 109.233 93.4502 109.041 93.167L109.51 92.625C109.897 93.1035 110.371 93.3428 110.931 93.3428C111.37 93.3428 111.712 93.2191 111.956 92.9717C112.204 92.7243 112.327 92.376 112.327 91.9268V91.4727C111.966 91.8893 111.473 92.0977 110.848 92.0977C110.229 92.0977 109.728 91.8486 109.344 91.3506C108.963 90.8525 108.773 90.1738 108.773 89.3145ZM109.681 89.417C109.681 90.0127 109.803 90.4814 110.047 90.8232C110.291 91.1618 110.633 91.3311 111.072 91.3311C111.642 91.3311 112.06 91.0723 112.327 90.5547V88.1426C112.051 87.638 111.636 87.3857 111.082 87.3857C110.643 87.3857 110.299 87.5566 110.052 87.8984C109.805 88.2402 109.681 88.7464 109.681 89.417ZM118.504 88.0059H119.183C119.609 87.9993 119.944 87.887 120.188 87.6689C120.433 87.4508 120.555 87.1562 120.555 86.7852C120.555 85.9518 120.14 85.5352 119.31 85.5352C118.919 85.5352 118.606 85.6475 118.372 85.8721C118.141 86.0934 118.025 86.388 118.025 86.7559H117.122C117.122 86.1927 117.327 85.7256 117.737 85.3545C118.151 84.9801 118.675 84.793 119.31 84.793C119.98 84.793 120.506 84.9704 120.887 85.3252C121.268 85.68 121.458 86.1732 121.458 86.8047C121.458 87.1139 121.357 87.4134 121.155 87.7031C120.957 87.9928 120.685 88.2093 120.34 88.3525C120.73 88.4762 121.032 88.6813 121.243 88.9678C121.458 89.2542 121.565 89.6042 121.565 90.0176C121.565 90.6556 121.357 91.1618 120.94 91.5361C120.524 91.9105 119.982 92.0977 119.314 92.0977C118.647 92.0977 118.104 91.917 117.684 91.5557C117.267 91.1943 117.059 90.7174 117.059 90.125H117.967C117.967 90.4993 118.089 90.7988 118.333 91.0234C118.577 91.248 118.904 91.3604 119.314 91.3604C119.751 91.3604 120.084 91.2464 120.315 91.0186C120.547 90.7907 120.662 90.4635 120.662 90.0371C120.662 89.6237 120.535 89.3063 120.281 89.085C120.027 88.8636 119.661 88.7497 119.183 88.7432H118.504V88.0059ZM123.14 92V84.8906H125.147C125.765 84.8906 126.312 85.0273 126.787 85.3008C127.263 85.5742 127.629 85.9632 127.886 86.4678C128.147 86.9723 128.278 87.5518 128.282 88.2061V88.6602C128.282 89.3307 128.151 89.9183 127.891 90.4229C127.634 90.9274 127.264 91.3148 126.783 91.585C126.304 91.8551 125.746 91.9935 125.108 92H123.14ZM124.078 85.6621V91.2334H125.064C125.787 91.2334 126.348 91.0088 126.748 90.5596C127.152 90.1104 127.354 89.4707 127.354 88.6406V88.2256C127.354 87.4183 127.163 86.7917 126.783 86.3457C126.405 85.8965 125.868 85.6686 125.171 85.6621H124.078ZM133.594 84.8906L135.918 90.6914L138.242 84.8906H139.458V92H138.521V89.2314L138.609 86.2432L136.275 92H135.557L133.228 86.2578L133.321 89.2314V92H132.383V84.8906H133.594ZM140.833 89.3096C140.833 88.792 140.934 88.3265 141.135 87.9131C141.34 87.4997 141.624 87.1807 141.985 86.9561C142.35 86.7314 142.765 86.6191 143.23 86.6191C143.949 86.6191 144.531 86.8682 144.973 87.3662C145.419 87.8643 145.642 88.5267 145.642 89.3535V89.417C145.642 89.9313 145.543 90.3936 145.344 90.8037C145.149 91.2106 144.867 91.528 144.5 91.7559C144.135 91.9837 143.715 92.0977 143.24 92.0977C142.524 92.0977 141.943 91.8486 141.497 91.3506C141.054 90.8525 140.833 90.1934 140.833 89.373V89.3096ZM141.741 89.417C141.741 90.0029 141.876 90.4733 142.146 90.8281C142.42 91.1829 142.784 91.3604 143.24 91.3604C143.699 91.3604 144.063 91.1813 144.334 90.8232C144.604 90.4619 144.739 89.9574 144.739 89.3096C144.739 88.7301 144.601 88.2614 144.324 87.9033C144.05 87.542 143.686 87.3613 143.23 87.3613C142.784 87.3613 142.424 87.5387 142.151 87.8936C141.878 88.2484 141.741 88.7562 141.741 89.417ZM146.655 89.3145C146.655 88.5039 146.847 87.8529 147.231 87.3613C147.616 86.8665 148.118 86.6191 148.74 86.6191C149.359 86.6191 149.849 86.8307 150.21 87.2539V84.5H151.113V92H150.283L150.239 91.4336C149.878 91.8763 149.375 92.0977 148.73 92.0977C148.118 92.0977 147.619 91.847 147.231 91.3457C146.847 90.8444 146.655 90.1901 146.655 89.3828V89.3145ZM147.559 89.417C147.559 90.016 147.682 90.4847 147.93 90.8232C148.177 91.1618 148.519 91.3311 148.955 91.3311C149.528 91.3311 149.946 91.0739 150.21 90.5596V88.1328C149.94 87.6348 149.525 87.3857 148.965 87.3857C148.522 87.3857 148.177 87.5566 147.93 87.8984C147.682 88.2402 147.559 88.7464 147.559 89.417ZM154.812 92.0977C154.096 92.0977 153.513 91.8633 153.064 91.3945C152.615 90.9225 152.39 90.2926 152.39 89.5049V89.3389C152.39 88.8148 152.489 88.3477 152.688 87.9375C152.89 87.5241 153.17 87.2018 153.528 86.9707C153.889 86.7363 154.28 86.6191 154.7 86.6191C155.386 86.6191 155.92 86.8454 156.301 87.2979C156.682 87.7503 156.872 88.3981 156.872 89.2412V89.6172H153.293C153.306 90.138 153.458 90.5596 153.747 90.8818C154.04 91.2008 154.412 91.3604 154.861 91.3604C155.18 91.3604 155.45 91.2952 155.671 91.165C155.893 91.0348 156.086 90.8623 156.252 90.6475L156.804 91.0771C156.361 91.7575 155.697 92.0977 154.812 92.0977ZM154.7 87.3613C154.335 87.3613 154.029 87.4948 153.782 87.7617C153.534 88.0254 153.381 88.3965 153.323 88.875H155.969V88.8066C155.943 88.3477 155.819 87.9928 155.598 87.7422C155.377 87.4883 155.077 87.3613 154.7 87.3613ZM159.004 92H158.1V84.5H159.004V92ZM163.63 90.5986C163.63 90.3545 163.537 90.1657 163.352 90.0322C163.169 89.8955 162.849 89.7783 162.39 89.6807C161.934 89.583 161.571 89.4658 161.301 89.3291C161.034 89.1924 160.835 89.0296 160.705 88.8408C160.578 88.652 160.515 88.4274 160.515 88.167C160.515 87.734 160.697 87.3678 161.062 87.0684C161.43 86.7689 161.898 86.6191 162.468 86.6191C163.067 86.6191 163.552 86.7738 163.923 87.083C164.297 87.3923 164.485 87.7878 164.485 88.2695H163.576C163.576 88.0221 163.471 87.8089 163.259 87.6299C163.051 87.4508 162.787 87.3613 162.468 87.3613C162.139 87.3613 161.882 87.4329 161.696 87.5762C161.511 87.7194 161.418 87.9066 161.418 88.1377C161.418 88.3558 161.504 88.5202 161.677 88.6309C161.849 88.7415 162.16 88.8473 162.61 88.9482C163.062 89.0492 163.428 89.1696 163.708 89.3096C163.988 89.4495 164.195 89.6188 164.328 89.8174C164.465 90.0127 164.533 90.252 164.533 90.5352C164.533 91.0072 164.345 91.3864 163.967 91.6729C163.589 91.9561 163.099 92.0977 162.497 92.0977C162.074 92.0977 161.7 92.0228 161.374 91.873C161.049 91.7233 160.793 91.515 160.608 91.248C160.425 90.9779 160.334 90.6865 160.334 90.374H161.238C161.254 90.6768 161.374 90.9176 161.599 91.0967C161.827 91.2725 162.126 91.3604 162.497 91.3604C162.839 91.3604 163.113 91.292 163.318 91.1553C163.526 91.0153 163.63 90.8298 163.63 90.5986ZM26.665 104H25.7617V98.7168H26.665V104ZM25.6885 97.3154C25.6885 97.1689 25.7324 97.0452 25.8203 96.9443C25.9115 96.8434 26.0449 96.793 26.2207 96.793C26.3965 96.793 26.5299 96.8434 26.6211 96.9443C26.7122 97.0452 26.7578 97.1689 26.7578 97.3154C26.7578 97.4619 26.7122 97.584 26.6211 97.6816C26.5299 97.7793 26.3965 97.8281 26.2207 97.8281C26.0449 97.8281 25.9115 97.7793 25.8203 97.6816C25.7324 97.584 25.6885 97.4619 25.6885 97.3154ZM29.0697 98.7168L29.099 99.3809C29.5027 98.873 30.03 98.6191 30.6811 98.6191C31.7976 98.6191 32.3607 99.249 32.3705 100.509V104H31.4672V100.504C31.4639 100.123 31.376 99.8415 31.2035 99.6592C31.0342 99.4769 30.7689 99.3857 30.4076 99.3857C30.1146 99.3857 29.8575 99.4639 29.6361 99.6201C29.4148 99.7764 29.2423 99.9814 29.1186 100.235V104H28.2152V98.7168H29.0697ZM35.0584 97.4375V98.7168H36.0447V99.415H35.0584V102.691C35.0584 102.903 35.1023 103.062 35.1902 103.17C35.2781 103.274 35.4279 103.326 35.6395 103.326C35.7436 103.326 35.8868 103.307 36.0691 103.268V104C35.8315 104.065 35.6004 104.098 35.3758 104.098C34.9721 104.098 34.6678 103.976 34.4627 103.731C34.2576 103.487 34.1551 103.141 34.1551 102.691V99.415H33.1932V98.7168H34.1551V97.4375H35.0584ZM36.8674 101.31C36.8674 100.792 36.9683 100.326 37.1701 99.9131C37.3752 99.4997 37.6584 99.1807 38.0197 98.9561C38.3843 98.7314 38.7993 98.6191 39.2648 98.6191C39.9842 98.6191 40.5653 98.8682 41.008 99.3662C41.454 99.8643 41.677 100.527 41.677 101.354V101.417C41.677 101.931 41.5777 102.394 41.3791 102.804C41.1838 103.211 40.9022 103.528 40.5344 103.756C40.1698 103.984 39.7499 104.098 39.2746 104.098C38.5585 104.098 37.9774 103.849 37.5314 103.351C37.0887 102.853 36.8674 102.193 36.8674 101.373V101.31ZM37.7756 101.417C37.7756 102.003 37.9107 102.473 38.1809 102.828C38.4543 103.183 38.8189 103.36 39.2746 103.36C39.7336 103.36 40.0982 103.181 40.3684 102.823C40.6385 102.462 40.7736 101.957 40.7736 101.31C40.7736 100.73 40.6353 100.261 40.3586 99.9033C40.0852 99.542 39.7206 99.3613 39.2648 99.3613C38.8189 99.3613 38.4592 99.5387 38.1857 99.8936C37.9123 100.248 37.7756 100.756 37.7756 101.417ZM49.9531 101.417C49.9531 102.221 49.7692 102.869 49.4014 103.36C49.0335 103.852 48.5355 104.098 47.9072 104.098C47.266 104.098 46.7614 103.894 46.3936 103.487V106.031H45.4902V98.7168H46.3154L46.3594 99.3027C46.7272 98.847 47.2383 98.6191 47.8926 98.6191C48.5273 98.6191 49.0286 98.8584 49.3965 99.3369C49.7676 99.8154 49.9531 100.481 49.9531 101.334V101.417ZM49.0498 101.314C49.0498 100.719 48.9229 100.248 48.6689 99.9033C48.415 99.5583 48.0667 99.3857 47.624 99.3857C47.0771 99.3857 46.667 99.6283 46.3936 100.113V102.638C46.6637 103.119 47.0771 103.36 47.6338 103.36C48.0667 103.36 48.4102 103.189 48.6641 102.848C48.9212 102.503 49.0498 101.992 49.0498 101.314ZM52.1088 99.3564C52.5092 98.8649 53.03 98.6191 53.6713 98.6191C54.7878 98.6191 55.351 99.249 55.3607 100.509V104H54.4574V100.504C54.4542 100.123 54.3663 99.8415 54.1938 99.6592C54.0245 99.4769 53.7592 99.3857 53.3979 99.3857C53.1049 99.3857 52.8477 99.4639 52.6264 99.6201C52.405 99.7764 52.2325 99.9814 52.1088 100.235V104H51.2055V96.5H52.1088V99.3564ZM56.574 101.31C56.574 100.792 56.6749 100.326 56.8768 99.9131C57.0818 99.4997 57.365 99.1807 57.7264 98.9561C58.091 98.7314 58.506 98.6191 58.9715 98.6191C59.6909 98.6191 60.2719 98.8682 60.7146 99.3662C61.1606 99.8643 61.3836 100.527 61.3836 101.354V101.417C61.3836 101.931 61.2843 102.394 61.0857 102.804C60.8904 103.211 60.6089 103.528 60.241 103.756C59.8764 103.984 59.4565 104.098 58.9813 104.098C58.2651 104.098 57.6841 103.849 57.2381 103.351C56.7954 102.853 56.574 102.193 56.574 101.373V101.31ZM57.4822 101.417C57.4822 102.003 57.6173 102.473 57.8875 102.828C58.1609 103.183 58.5255 103.36 58.9813 103.36C59.4402 103.36 59.8048 103.181 60.075 102.823C60.3452 102.462 60.4803 101.957 60.4803 101.31C60.4803 100.73 60.3419 100.261 60.0652 99.9033C59.7918 99.542 59.4272 99.3613 58.9715 99.3613C58.5255 99.3613 58.1658 99.5387 57.8924 99.8936C57.6189 100.248 57.4822 100.756 57.4822 101.417ZM63.842 97.4375V98.7168H64.8283V99.415H63.842V102.691C63.842 102.903 63.8859 103.062 63.9738 103.17C64.0617 103.274 64.2115 103.326 64.423 103.326C64.5272 103.326 64.6704 103.307 64.8527 103.268V104C64.6151 104.065 64.384 104.098 64.1594 104.098C63.7557 104.098 63.4514 103.976 63.2463 103.731C63.0412 103.487 62.9387 103.141 62.9387 102.691V99.415H61.9768V98.7168H62.9387V97.4375H63.842ZM65.651 101.31C65.651 100.792 65.7519 100.326 65.9537 99.9131C66.1588 99.4997 66.442 99.1807 66.8033 98.9561C67.1679 98.7314 67.5829 98.6191 68.0484 98.6191C68.7678 98.6191 69.3489 98.8682 69.7916 99.3662C70.2376 99.8643 70.4605 100.527 70.4605 101.354V101.417C70.4605 101.931 70.3613 102.394 70.1627 102.804C69.9674 103.211 69.6858 103.528 69.318 103.756C68.9534 103.984 68.5335 104.098 68.0582 104.098C67.3421 104.098 66.761 103.849 66.315 103.351C65.8723 102.853 65.651 102.193 65.651 101.373V101.31ZM66.5592 101.417C66.5592 102.003 66.6943 102.473 66.9645 102.828C67.2379 103.183 67.6025 103.36 68.0582 103.36C68.5172 103.36 68.8818 103.181 69.152 102.823C69.4221 102.462 69.5572 101.957 69.5572 101.31C69.5572 100.73 69.4189 100.261 69.1422 99.9033C68.8688 99.542 68.5042 99.3613 68.0484 99.3613C67.6025 99.3613 67.2428 99.5387 66.9693 99.8936C66.6959 100.248 66.5592 100.756 66.5592 101.417ZM74.2471 99.5273C74.1104 99.5046 73.9622 99.4932 73.8027 99.4932C73.2103 99.4932 72.8083 99.7454 72.5967 100.25V104H71.6934V98.7168H72.5723L72.5869 99.3271C72.8831 98.8551 73.3031 98.6191 73.8467 98.6191C74.0225 98.6191 74.1559 98.6419 74.2471 98.6875V99.5273ZM77.2768 104.098C76.5606 104.098 75.9779 103.863 75.5287 103.395C75.0795 102.923 74.8549 102.293 74.8549 101.505V101.339C74.8549 100.815 74.9542 100.348 75.1527 99.9375C75.3546 99.5241 75.6345 99.2018 75.9926 98.9707C76.3539 98.7363 76.7445 98.6191 77.1645 98.6191C77.8513 98.6191 78.3852 98.8454 78.766 99.2979C79.1469 99.7503 79.3373 100.398 79.3373 101.241V101.617H75.7582C75.7712 102.138 75.9226 102.56 76.2123 102.882C76.5053 103.201 76.8764 103.36 77.3256 103.36C77.6446 103.36 77.9148 103.295 78.1361 103.165C78.3575 103.035 78.5512 102.862 78.7172 102.647L79.2689 103.077C78.8262 103.757 78.1622 104.098 77.2768 104.098ZM77.1645 99.3613C76.7999 99.3613 76.4939 99.4948 76.2465 99.7617C75.9991 100.025 75.8461 100.396 75.7875 100.875H78.434V100.807C78.4079 100.348 78.2842 99.9928 78.0629 99.7422C77.8415 99.4883 77.5421 99.3613 77.1645 99.3613ZM83.7488 104C83.6967 103.896 83.6544 103.71 83.6219 103.443C83.202 103.88 82.7007 104.098 82.118 104.098C81.5971 104.098 81.1691 103.951 80.8338 103.658C80.5018 103.362 80.3357 102.988 80.3357 102.535C80.3357 101.985 80.5441 101.559 80.9607 101.256C81.3807 100.95 81.9699 100.797 82.7283 100.797H83.6072V100.382C83.6072 100.066 83.5128 99.8154 83.324 99.6299C83.1352 99.4411 82.8569 99.3467 82.4891 99.3467C82.1668 99.3467 81.8966 99.4281 81.6785 99.5908C81.4604 99.7536 81.3514 99.9505 81.3514 100.182H80.4432C80.4432 99.918 80.5359 99.6641 80.7215 99.4199C80.9103 99.1725 81.1642 98.9772 81.4832 98.834C81.8055 98.6908 82.1587 98.6191 82.5428 98.6191C83.1515 98.6191 83.6284 98.7721 83.9734 99.0781C84.3185 99.3809 84.4975 99.7992 84.5105 100.333V102.765C84.5105 103.25 84.5724 103.635 84.6961 103.922V104H83.7488ZM82.2498 103.312C82.533 103.312 82.8016 103.238 83.0555 103.092C83.3094 102.945 83.4933 102.755 83.6072 102.521V101.437H82.8992C81.7924 101.437 81.2391 101.76 81.2391 102.408C81.2391 102.691 81.3335 102.913 81.5223 103.072C81.7111 103.232 81.9536 103.312 82.2498 103.312ZM87.008 104H86.1047V96.5H87.008V104ZM89.5396 104H88.6363V98.7168H89.5396V104ZM88.5631 97.3154C88.5631 97.1689 88.607 97.0452 88.6949 96.9443C88.7861 96.8434 88.9195 96.793 89.0953 96.793C89.2711 96.793 89.4046 96.8434 89.4957 96.9443C89.5869 97.0452 89.6324 97.1689 89.6324 97.3154C89.6324 97.4619 89.5869 97.584 89.4957 97.6816C89.4046 97.7793 89.2711 97.8281 89.0953 97.8281C88.9195 97.8281 88.7861 97.7793 88.6949 97.6816C88.607 97.584 88.5631 97.4619 88.5631 97.3154ZM94.166 102.599C94.166 102.354 94.0732 102.166 93.8877 102.032C93.7054 101.896 93.3848 101.778 92.9258 101.681C92.4701 101.583 92.1071 101.466 91.8369 101.329C91.57 101.192 91.3714 101.03 91.2412 100.841C91.1143 100.652 91.0508 100.427 91.0508 100.167C91.0508 99.734 91.2331 99.3678 91.5977 99.0684C91.9655 98.7689 92.4342 98.6191 93.0039 98.6191C93.6029 98.6191 94.0879 98.7738 94.459 99.083C94.8333 99.3923 95.0205 99.7878 95.0205 100.27H94.1123C94.1123 100.022 94.0065 99.8089 93.7949 99.6299C93.5866 99.4508 93.3229 99.3613 93.0039 99.3613C92.6751 99.3613 92.418 99.4329 92.2324 99.5762C92.0469 99.7194 91.9541 99.9066 91.9541 100.138C91.9541 100.356 92.0404 100.52 92.2129 100.631C92.3854 100.742 92.6963 100.847 93.1455 100.948C93.598 101.049 93.9642 101.17 94.2441 101.31C94.5241 101.45 94.7308 101.619 94.8643 101.817C95.001 102.013 95.0693 102.252 95.0693 102.535C95.0693 103.007 94.8805 103.386 94.5029 103.673C94.1253 103.956 93.6354 104.098 93.0332 104.098C92.61 104.098 92.2357 104.023 91.9102 103.873C91.5846 103.723 91.3291 103.515 91.1436 103.248C90.9613 102.978 90.8701 102.687 90.8701 102.374H91.7734C91.7897 102.677 91.9102 102.918 92.1348 103.097C92.3626 103.272 92.6621 103.36 93.0332 103.36C93.375 103.36 93.6484 103.292 93.8535 103.155C94.0618 103.015 94.166 102.83 94.166 102.599ZM97.5717 97.4375V98.7168H98.558V99.415H97.5717V102.691C97.5717 102.903 97.6156 103.062 97.7035 103.17C97.7914 103.274 97.9411 103.326 98.1527 103.326C98.2569 103.326 98.4001 103.307 98.5824 103.268V104C98.3448 104.065 98.1137 104.098 97.8891 104.098C97.4854 104.098 97.1811 103.976 96.976 103.731C96.7709 103.487 96.6684 103.141 96.6684 102.691V99.415H95.7064V98.7168H96.6684V97.4375H97.5717ZM100.699 104H99.7957V98.7168H100.699V104ZM99.7225 97.3154C99.7225 97.1689 99.7664 97.0452 99.8543 96.9443C99.9454 96.8434 100.079 96.793 100.255 96.793C100.43 96.793 100.564 96.8434 100.655 96.9443C100.746 97.0452 100.792 97.1689 100.792 97.3154C100.792 97.4619 100.746 97.584 100.655 97.6816C100.564 97.7793 100.43 97.8281 100.255 97.8281C100.079 97.8281 99.9454 97.7793 99.8543 97.6816C99.7664 97.584 99.7225 97.4619 99.7225 97.3154ZM104.368 103.36C104.691 103.36 104.972 103.263 105.213 103.067C105.454 102.872 105.587 102.628 105.613 102.335H106.468C106.452 102.638 106.348 102.926 106.155 103.199C105.963 103.473 105.706 103.691 105.384 103.854C105.065 104.016 104.726 104.098 104.368 104.098C103.649 104.098 103.076 103.858 102.65 103.38C102.226 102.898 102.015 102.241 102.015 101.407V101.256C102.015 100.742 102.109 100.284 102.298 99.8838C102.487 99.4834 102.757 99.1725 103.109 98.9512C103.463 98.7298 103.882 98.6191 104.363 98.6191C104.956 98.6191 105.447 98.7965 105.838 99.1514C106.232 99.5062 106.442 99.9668 106.468 100.533H105.613C105.587 100.191 105.457 99.9115 105.223 99.6934C104.992 99.472 104.705 99.3613 104.363 99.3613C103.904 99.3613 103.548 99.5273 103.294 99.8594C103.043 100.188 102.918 100.665 102.918 101.29V101.461C102.918 102.07 103.043 102.538 103.294 102.867C103.545 103.196 103.903 103.36 104.368 103.36ZM111.146 104H110.242V98.7168H111.146V104ZM110.169 97.3154C110.169 97.1689 110.213 97.0452 110.301 96.9443C110.392 96.8434 110.525 96.793 110.701 96.793C110.877 96.793 111.01 96.8434 111.102 96.9443C111.193 97.0452 111.238 97.1689 111.238 97.3154C111.238 97.4619 111.193 97.584 111.102 97.6816C111.01 97.7793 110.877 97.8281 110.701 97.8281C110.525 97.8281 110.392 97.7793 110.301 97.6816C110.213 97.584 110.169 97.4619 110.169 97.3154ZM113.545 98.7168L113.57 99.3027C113.957 98.847 114.48 98.6191 115.137 98.6191C115.876 98.6191 116.379 98.9023 116.646 99.4688C116.822 99.2148 117.05 99.0098 117.329 98.8535C117.613 98.6973 117.946 98.6191 118.33 98.6191C119.489 98.6191 120.079 99.2327 120.098 100.46V104H119.195V100.514C119.195 100.136 119.108 99.8545 118.936 99.6689C118.763 99.4801 118.474 99.3857 118.067 99.3857C117.732 99.3857 117.453 99.4867 117.232 99.6885C117.01 99.887 116.882 100.156 116.846 100.494V104H115.938V100.538C115.938 99.7699 115.562 99.3857 114.81 99.3857C114.218 99.3857 113.812 99.638 113.594 100.143V104H112.691V98.7168H113.545ZM124.827 104C124.775 103.896 124.733 103.71 124.7 103.443C124.28 103.88 123.779 104.098 123.196 104.098C122.675 104.098 122.247 103.951 121.912 103.658C121.58 103.362 121.414 102.988 121.414 102.535C121.414 101.985 121.622 101.559 122.039 101.256C122.459 100.95 123.048 100.797 123.806 100.797H124.685V100.382C124.685 100.066 124.591 99.8154 124.402 99.6299C124.213 99.4411 123.935 99.3467 123.567 99.3467C123.245 99.3467 122.975 99.4281 122.757 99.5908C122.539 99.7536 122.429 99.9505 122.429 100.182H121.521C121.521 99.918 121.614 99.6641 121.8 99.4199C121.988 99.1725 122.242 98.9772 122.561 98.834C122.884 98.6908 123.237 98.6191 123.621 98.6191C124.23 98.6191 124.707 98.7721 125.052 99.0781C125.397 99.3809 125.576 99.7992 125.589 100.333V102.765C125.589 103.25 125.651 103.635 125.774 103.922V104H124.827ZM123.328 103.312C123.611 103.312 123.88 103.238 124.134 103.092C124.387 102.945 124.571 102.755 124.685 102.521V101.437H123.977C122.871 101.437 122.317 101.76 122.317 102.408C122.317 102.691 122.412 102.913 122.6 103.072C122.789 103.232 123.032 103.312 123.328 103.312ZM126.89 101.314C126.89 100.491 127.08 99.8366 127.461 99.3516C127.842 98.8633 128.347 98.6191 128.975 98.6191C129.619 98.6191 130.122 98.847 130.484 99.3027L130.528 98.7168H131.353V103.873C131.353 104.557 131.149 105.095 130.742 105.489C130.339 105.883 129.795 106.08 129.112 106.08C128.731 106.08 128.358 105.999 127.993 105.836C127.629 105.673 127.35 105.45 127.158 105.167L127.627 104.625C128.015 105.104 128.488 105.343 129.048 105.343C129.488 105.343 129.829 105.219 130.073 104.972C130.321 104.724 130.445 104.376 130.445 103.927V103.473C130.083 103.889 129.59 104.098 128.965 104.098C128.347 104.098 127.845 103.849 127.461 103.351C127.08 102.853 126.89 102.174 126.89 101.314ZM127.798 101.417C127.798 102.013 127.92 102.481 128.164 102.823C128.408 103.162 128.75 103.331 129.19 103.331C129.759 103.331 130.178 103.072 130.445 102.555V100.143C130.168 99.638 129.753 99.3857 129.199 99.3857C128.76 99.3857 128.417 99.5566 128.169 99.8984C127.922 100.24 127.798 100.746 127.798 101.417ZM135.012 104.098C134.296 104.098 133.713 103.863 133.264 103.395C132.815 102.923 132.59 102.293 132.59 101.505V101.339C132.59 100.815 132.69 100.348 132.888 99.9375C133.09 99.5241 133.37 99.2018 133.728 98.9707C134.089 98.7363 134.48 98.6191 134.9 98.6191C135.587 98.6191 136.121 98.8454 136.502 99.2979C136.882 99.7503 137.073 100.398 137.073 101.241V101.617H133.494C133.507 102.138 133.658 102.56 133.948 102.882C134.241 103.201 134.612 103.36 135.061 103.36C135.38 103.36 135.65 103.295 135.872 103.165C136.093 103.035 136.287 102.862 136.453 102.647L137.004 103.077C136.562 103.757 135.898 104.098 135.012 104.098ZM134.9 99.3613C134.535 99.3613 134.229 99.4948 133.982 99.7617C133.735 100.025 133.582 100.396 133.523 100.875H136.17V100.807C136.143 100.348 136.02 99.9928 135.798 99.7422C135.577 99.4883 135.278 99.3613 134.9 99.3613ZM141.299 102.599C141.299 102.354 141.206 102.166 141.021 102.032C140.838 101.896 140.518 101.778 140.059 101.681C139.603 101.583 139.24 101.466 138.97 101.329C138.703 101.192 138.504 101.03 138.374 100.841C138.247 100.652 138.184 100.427 138.184 100.167C138.184 99.734 138.366 99.3678 138.73 99.0684C139.098 98.7689 139.567 98.6191 140.137 98.6191C140.736 98.6191 141.221 98.7738 141.592 99.083C141.966 99.3923 142.153 99.7878 142.153 100.27H141.245C141.245 100.022 141.139 99.8089 140.928 99.6299C140.719 99.4508 140.456 99.3613 140.137 99.3613C139.808 99.3613 139.551 99.4329 139.365 99.5762C139.18 99.7194 139.087 99.9066 139.087 100.138C139.087 100.356 139.173 100.52 139.346 100.631C139.518 100.742 139.829 100.847 140.278 100.948C140.731 101.049 141.097 101.17 141.377 101.31C141.657 101.45 141.864 101.619 141.997 101.817C142.134 102.013 142.202 102.252 142.202 102.535C142.202 103.007 142.013 103.386 141.636 103.673C141.258 103.956 140.768 104.098 140.166 104.098C139.743 104.098 139.368 104.023 139.043 103.873C138.717 103.723 138.462 103.515 138.276 103.248C138.094 102.978 138.003 102.687 138.003 102.374H138.906C138.923 102.677 139.043 102.918 139.268 103.097C139.495 103.272 139.795 103.36 140.166 103.36C140.508 103.36 140.781 103.292 140.986 103.155C141.195 103.015 141.299 102.83 141.299 102.599ZM27.5635 145.349H25.1807V144.611H27.5635V145.349ZM30.4271 145.349H28.0443V144.611H30.4271V145.349Z" fill="white"/>
<path d="M31.5234 73.4746L34.7461 62.7812H38.0078L33.0566 77H30L25.0684 62.7812H28.3203L31.5234 73.4746ZM45.0145 69.0801C44.6303 69.028 44.2918 69.002 43.9988 69.002C42.9311 69.002 42.2312 69.3633 41.8992 70.0859V77H39.077V66.4336H41.743L41.8211 67.6934C42.3875 66.7233 43.172 66.2383 44.1746 66.2383C44.4871 66.2383 44.7801 66.2806 45.0535 66.3652L45.0145 69.0801ZM52.4117 77C52.2815 76.7461 52.1871 76.4303 52.1285 76.0527C51.4449 76.8145 50.5562 77.1953 49.4625 77.1953C48.4273 77.1953 47.568 76.8958 46.8844 76.2969C46.2073 75.6979 45.8687 74.9427 45.8687 74.0312C45.8687 72.9115 46.2822 72.0521 47.109 71.4531C47.9423 70.8542 49.1435 70.5514 50.7125 70.5449H52.0113V69.9395C52.0113 69.4512 51.8844 69.0605 51.6305 68.7676C51.3831 68.4746 50.9892 68.3281 50.4488 68.3281C49.9736 68.3281 49.5992 68.4421 49.3258 68.6699C49.0589 68.8978 48.9254 69.2103 48.9254 69.6074H46.1031C46.1031 68.9954 46.2919 68.429 46.6695 67.9082C47.0471 67.3874 47.581 66.9805 48.2711 66.6875C48.9612 66.388 49.7359 66.2383 50.5953 66.2383C51.8974 66.2383 52.9293 66.5671 53.691 67.2246C54.4592 67.8757 54.8434 68.7936 54.8434 69.9785V74.5586C54.8499 75.5612 54.9898 76.3197 55.2633 76.834V77H52.4117ZM50.0777 75.0371C50.4944 75.0371 50.8785 74.946 51.2301 74.7637C51.5816 74.5749 51.8421 74.3242 52.0113 74.0117V72.1953H50.9566C49.5439 72.1953 48.7919 72.6836 48.7008 73.6602L48.691 73.8262C48.691 74.1777 48.8147 74.4674 49.0621 74.6953C49.3095 74.9232 49.648 75.0371 50.0777 75.0371ZM61.0004 73.0059L62.9535 66.4336H65.9809L61.7328 78.6406L61.4984 79.1973C60.8669 80.5775 59.8253 81.2676 58.3734 81.2676C57.9633 81.2676 57.5466 81.2057 57.1234 81.082V78.9434L57.5531 78.9531C58.087 78.9531 58.4841 78.8717 58.7445 78.709C59.0115 78.5462 59.2198 78.276 59.3695 77.8984L59.7016 77.0293L56.0004 66.4336H59.0375L61.0004 73.0059Z" fill="white"/>
<defs>
<filter id="filter0_d" x="0" y="0" width="177" height="181" filterUnits="userSpaceOnUse" color-interpolation-filters="sRGB">
<feFlood flood-opacity="0" result="BackgroundImageFix"/>
<feColorMatrix in="SourceAlpha" type="matrix" values="0 0 0 0 0 0 0 0 0 0 0 0 0 0 0 0 0 0 127 0" result="hardAlpha"/>
<feOffset dy="4"/>
<feGaussianBlur stdDeviation="2"/>
<feComposite in2="hardAlpha" operator="out"/>
<feColorMatrix type="matrix" values="0 0 0 0 0 0 0 0 0 0 0 0 0 0 0 0 0 0 0.25 0"/>
<feBlend mode="normal" in2="BackgroundImageFix" result="effect1_dropShadow"/>
<feBlend mode="normal" in="SourceGraphic" in2="effect1_dropShadow" result="shape"/>
</filter>
</defs>
</svg>
